<svg width="177" height="124" viewBox="0 0 177 124" fill="none" xmlns="http://www.w3.org/2000/svg">
<path d="M18.2012 104.504L15.8379 118H13.2207L15.584 104.504H18.2012ZM24.3828 118L25.1641 113.4C25.1966 113.192 25.2259 112.961 25.252 112.707C25.2845 112.447 25.2975 112.193 25.291 111.945C25.291 111.691 25.2617 111.454 25.2031 111.232C25.151 111.011 25.0566 110.832 24.9199 110.695C24.8809 110.656 24.8483 110.633 24.8223 110.627C24.8027 110.62 24.7767 110.617 24.7441 110.617H21.7461L20.4668 118H17.8594L19.4609 108.801H25.8672C26.1406 108.801 26.3848 108.853 26.5996 108.957C26.8145 109.061 27.0033 109.195 27.166 109.357C27.4004 109.611 27.5729 109.904 27.6836 110.236C27.8008 110.562 27.8757 110.904 27.9082 111.262C27.9408 111.62 27.9375 111.984 27.8984 112.355C27.8659 112.72 27.8203 113.068 27.7617 113.4L26.9805 118H24.3828ZM35.3008 105.637C35.0534 105.637 34.8353 105.715 34.6465 105.871C34.4642 106.027 34.3047 106.226 34.168 106.467C34.0312 106.708 33.9206 106.971 33.8359 107.258C33.7513 107.538 33.6862 107.805 33.6406 108.059C33.6406 108.072 33.6341 108.114 33.6211 108.186C33.6081 108.251 33.5951 108.326 33.582 108.41C33.569 108.495 33.556 108.573 33.543 108.645C33.5299 108.716 33.5234 108.755 33.5234 108.762H34.666L34.3438 110.559H33.2012C33.097 111.158 32.9831 111.805 32.8594 112.502C32.7357 113.199 32.6152 113.885 32.498 114.562C32.3809 115.24 32.2702 115.881 32.166 116.486C32.0684 117.085 31.987 117.59 31.9219 118H29.3242C29.3893 117.59 29.4707 117.085 29.5684 116.486C29.6725 115.881 29.7832 115.24 29.9004 114.562C30.0176 113.885 30.138 113.199 30.2617 112.502C30.3854 111.805 30.4993 111.158 30.6035 110.559H29.4805L29.8027 108.762H30.9258C30.9258 108.755 30.9323 108.716 30.9453 108.645C30.9583 108.573 30.9714 108.495 30.9844 108.41C30.9974 108.326 31.0104 108.251 31.0234 108.186C31.0365 108.114 31.043 108.072 31.043 108.059C31.1081 107.694 31.196 107.316 31.3066 106.926C31.4238 106.529 31.5833 106.151 31.7852 105.793C31.9935 105.428 32.2539 105.1 32.5664 104.807C32.8789 104.507 33.263 104.273 33.7188 104.104C34.0052 103.993 34.3047 103.915 34.6172 103.869C34.9362 103.824 35.2715 103.801 35.623 103.801L35.3008 105.637ZM38.7676 108.801L37.166 118H34.5586L36.1602 108.801H38.7676ZM36.6387 106.037L37.0391 103.801H39.6465L39.2461 106.037H36.6387ZM45.7109 118L46.4922 113.4C46.5247 113.192 46.554 112.961 46.5801 112.707C46.6126 112.447 46.6257 112.193 46.6191 111.945C46.6191 111.691 46.5898 111.454 46.5312 111.232C46.4792 111.011 46.3848 110.832 46.248 110.695C46.209 110.656 46.1764 110.633 46.1504 110.627C46.1309 110.62 46.1048 110.617 46.0723 110.617H43.0742L41.7949 118H39.1875L40.7891 108.801H47.1953C47.4688 108.801 47.7129 108.853 47.9277 108.957C48.1426 109.061 48.3314 109.195 48.4941 109.357C48.7285 109.611 48.901 109.904 49.0117 110.236C49.1289 110.562 49.2038 110.904 49.2363 111.262C49.2689 111.62 49.2656 111.984 49.2266 112.355C49.194 112.72 49.1484 113.068 49.0898 113.4L48.3086 118H45.7109ZM54.334 108.801L52.7324 118H50.125L51.7266 108.801H54.334ZM52.2051 106.037L52.6055 103.801H55.2129L54.8125 106.037H52.2051ZM60.7793 103.801C60.7793 103.807 60.763 103.885 60.7305 104.035C60.7044 104.178 60.6719 104.367 60.6328 104.602C60.5938 104.836 60.5449 105.103 60.4863 105.402C60.4342 105.702 60.3822 106.008 60.3301 106.32C60.278 106.633 60.2227 106.939 60.1641 107.238C60.112 107.538 60.0664 107.805 60.0273 108.039C59.9883 108.273 59.9525 108.465 59.9199 108.615C59.8939 108.758 59.8809 108.833 59.8809 108.84H61.3945L61.082 110.637H59.5586C59.4544 111.236 59.3405 111.88 59.2168 112.57C59.0996 113.26 58.9824 113.941 58.8652 114.611C58.7546 115.275 58.6471 115.904 58.543 116.496C58.4453 117.089 58.3639 117.59 58.2988 118H55.7012C55.7663 117.59 55.8477 117.089 55.9453 116.496C56.043 115.904 56.1504 115.275 56.2676 114.611C56.3848 113.941 56.502 113.26 56.6191 112.57C56.7428 111.88 56.8568 111.236 56.9609 110.637H55.418L55.7402 108.84H57.2734C57.2799 108.833 57.2962 108.758 57.3223 108.615C57.3483 108.465 57.3809 108.273 57.4199 108.039C57.4655 107.805 57.5143 107.538 57.5664 107.238C57.6185 106.939 57.6706 106.633 57.7227 106.32C57.7812 106.008 57.8366 105.702 57.8887 105.402C57.9473 105.103 57.9961 104.836 58.0352 104.602C58.0742 104.367 58.1068 104.178 58.1328 104.035C58.1654 103.885 58.1816 103.807 58.1816 103.801H60.7793ZM71.9414 108.82L70.3398 117.98L69.9199 119.582C69.8288 119.823 69.7279 120.051 69.6172 120.266C69.513 120.487 69.3958 120.699 69.2656 120.9C69.0573 121.193 68.8229 121.444 68.5625 121.652C68.3021 121.867 68.0221 122.043 67.7227 122.18C67.4232 122.323 67.1074 122.427 66.7754 122.492C66.4434 122.564 66.1048 122.6 65.7598 122.6H61.7266L62.0391 120.803H65.2812C65.7305 120.803 66.1309 120.705 66.4824 120.51C66.8405 120.321 67.1204 119.973 67.3223 119.465C67.3483 119.387 67.3776 119.286 67.4102 119.162C67.4492 119.045 67.485 118.918 67.5176 118.781C67.5501 118.651 67.5827 118.514 67.6152 118.371C67.6478 118.234 67.6771 118.104 67.7031 117.98H63.9238C63.5723 117.98 63.2728 117.906 63.0254 117.756C62.778 117.606 62.5729 117.408 62.4102 117.16C62.2539 116.913 62.1335 116.63 62.0488 116.311C61.9707 115.992 61.9186 115.663 61.8926 115.324C61.873 114.979 61.873 114.641 61.8926 114.309C61.9121 113.97 61.9479 113.661 62 113.381C62.0391 113.153 62.0814 112.915 62.127 112.668C62.1725 112.414 62.2181 112.16 62.2637 111.906C62.3092 111.646 62.3548 111.389 62.4004 111.135C62.446 110.881 62.4883 110.64 62.5273 110.412C62.625 109.872 62.7227 109.335 62.8203 108.801H65.4277C65.291 109.569 65.1641 110.272 65.0469 110.91C64.9948 111.184 64.946 111.454 64.9004 111.721C64.8548 111.988 64.8092 112.235 64.7637 112.463C64.7246 112.691 64.6888 112.886 64.6562 113.049C64.6302 113.212 64.6139 113.322 64.6074 113.381C64.5879 113.492 64.5651 113.632 64.5391 113.801C64.5195 113.964 64.5033 114.139 64.4902 114.328C64.4837 114.517 64.4837 114.712 64.4902 114.914C64.5033 115.109 64.5293 115.292 64.5684 115.461C64.6074 115.63 64.6628 115.78 64.7344 115.91C64.8125 116.04 64.9167 116.132 65.0469 116.184H68.0449L69.3438 108.801L71.9414 108.82ZM79.9297 106.301L79.373 109.436H85.1543L84.832 111.262H79.0508L78.1914 116.184H84.4902L84.1875 118H75.2715L77.6348 104.504H86.5508L86.2285 106.301H79.9297ZM90.7012 103.801L88.2207 118H85.6133L88.0938 103.801H90.7012ZM91.0234 116.301C90.9258 115.871 90.8802 115.389 90.8867 114.855C90.8997 114.315 90.9518 113.791 91.043 113.283C91.1081 112.925 91.1927 112.561 91.2969 112.189C91.4076 111.812 91.541 111.451 91.6973 111.105C91.86 110.754 92.0521 110.425 92.2734 110.119C92.5013 109.813 92.765 109.546 93.0645 109.318C93.2728 109.156 93.5072 109.029 93.7676 108.938C94.028 108.846 94.2949 108.801 94.5684 108.801H98.6309C99.041 108.827 99.3893 108.924 99.6758 109.094C99.9688 109.263 100.2 109.481 100.369 109.748C100.538 110.015 100.649 110.321 100.701 110.666C100.76 111.005 100.757 111.356 100.691 111.721C100.626 112.053 100.519 112.378 100.369 112.697C100.226 113.016 100.018 113.322 99.7441 113.615C99.4967 113.902 99.1842 114.136 98.8066 114.318C98.429 114.494 98.0286 114.582 97.6055 114.582H93.543C93.543 114.719 93.5462 114.868 93.5527 115.031C93.5592 115.194 93.5788 115.354 93.6113 115.51C93.6439 115.666 93.6927 115.806 93.7578 115.93C93.8294 116.053 93.9271 116.145 94.0508 116.203H98.8262L98.543 118H92.9473C92.6803 118 92.4427 117.951 92.2344 117.854C92.026 117.756 91.8438 117.629 91.6875 117.473C91.5312 117.31 91.3978 117.128 91.2871 116.926C91.1764 116.717 91.0885 116.509 91.0234 116.301ZM97.127 112.775C97.2767 112.762 97.3874 112.736 97.459 112.697C97.5371 112.658 97.625 112.6 97.7227 112.521C97.7943 112.437 97.8626 112.323 97.9277 112.18C97.9993 112.036 98.0514 111.883 98.084 111.721C98.1165 111.551 98.123 111.392 98.1035 111.242C98.084 111.086 98.0449 110.959 97.9863 110.861C97.9277 110.77 97.8691 110.705 97.8105 110.666C97.752 110.62 97.651 110.598 97.5078 110.598H95.0469C94.9948 110.598 94.9557 110.604 94.9297 110.617C94.9102 110.624 94.8678 110.643 94.8027 110.676C94.6465 110.786 94.5098 110.93 94.3926 111.105C94.2754 111.281 94.1745 111.467 94.0898 111.662C94.0117 111.857 93.9466 112.053 93.8945 112.248C93.8424 112.443 93.8001 112.619 93.7676 112.775H97.127ZM102.195 116.34C102.098 115.917 102.049 115.445 102.049 114.924C102.055 114.396 102.104 113.882 102.195 113.381C102.267 112.997 102.358 112.619 102.469 112.248C102.579 111.877 102.716 111.516 102.879 111.164C103.016 110.871 103.178 110.585 103.367 110.305C103.562 110.018 103.781 109.764 104.021 109.543C104.262 109.322 104.526 109.143 104.812 109.006C105.099 108.869 105.408 108.801 105.74 108.801H111.18L110.857 110.598H106.219C106.102 110.598 105.988 110.656 105.877 110.773C105.766 110.891 105.659 111.04 105.555 111.223C105.457 111.405 105.363 111.607 105.271 111.828C105.187 112.049 105.112 112.264 105.047 112.473C104.982 112.681 104.926 112.867 104.881 113.029C104.842 113.192 104.816 113.309 104.803 113.381C104.764 113.589 104.728 113.837 104.695 114.123C104.663 114.41 104.653 114.693 104.666 114.973C104.679 115.253 104.725 115.507 104.803 115.734C104.887 115.962 105.027 116.118 105.223 116.203H109.842L109.559 118H104.119C103.852 118 103.615 117.954 103.406 117.863C103.198 117.766 103.016 117.639 102.859 117.482C102.703 117.326 102.57 117.15 102.459 116.955C102.348 116.753 102.26 116.548 102.195 116.34ZM117.4 103.801C117.4 103.807 117.384 103.885 117.352 104.035C117.326 104.178 117.293 104.367 117.254 104.602C117.215 104.836 117.166 105.103 117.107 105.402C117.055 105.702 117.003 106.008 116.951 106.32C116.899 106.633 116.844 106.939 116.785 107.238C116.733 107.538 116.688 107.805 116.648 108.039C116.609 108.273 116.574 108.465 116.541 108.615C116.515 108.758 116.502 108.833 116.502 108.84H118.016L117.703 110.637H116.18C116.076 111.236 115.962 111.88 115.838 112.57C115.721 113.26 115.604 113.941 115.486 114.611C115.376 115.275 115.268 115.904 115.164 116.496C115.066 117.089 114.985 117.59 114.92 118H112.322C112.387 117.59 112.469 117.089 112.566 116.496C112.664 115.904 112.771 115.275 112.889 114.611C113.006 113.941 113.123 113.26 113.24 112.57C113.364 111.88 113.478 111.236 113.582 110.637H112.039L112.361 108.84H113.895C113.901 108.833 113.917 108.758 113.943 108.615C113.969 108.465 114.002 108.273 114.041 108.039C114.087 107.805 114.135 107.538 114.188 107.238C114.24 106.939 114.292 106.633 114.344 106.32C114.402 106.008 114.458 105.702 114.51 105.402C114.568 105.103 114.617 104.836 114.656 104.602C114.695 104.367 114.728 104.178 114.754 104.035C114.786 103.885 114.803 103.807 114.803 103.801H117.4ZM123.221 111.418C123.208 111.359 123.191 111.288 123.172 111.203C123.152 111.112 123.123 111.027 123.084 110.949C123.051 110.865 123.006 110.793 122.947 110.734C122.895 110.669 122.827 110.63 122.742 110.617H121.727L120.447 118H117.84L119.441 108.801H123.865C124.21 108.801 124.503 108.879 124.744 109.035C124.985 109.185 125.184 109.383 125.34 109.631C125.503 109.878 125.626 110.158 125.711 110.471C125.802 110.783 125.867 111.099 125.906 111.418H123.221ZM135.486 109.357C135.695 109.592 135.854 109.868 135.965 110.188C136.082 110.507 136.16 110.845 136.199 111.203C136.238 111.555 136.245 111.919 136.219 112.297C136.199 112.674 136.157 113.042 136.092 113.4C136.001 113.902 135.864 114.416 135.682 114.943C135.506 115.464 135.294 115.936 135.047 116.359C134.91 116.568 134.754 116.773 134.578 116.975C134.409 117.17 134.22 117.346 134.012 117.502C133.81 117.652 133.589 117.772 133.348 117.863C133.113 117.954 132.866 118 132.605 118H128.67C128.423 118 128.195 117.958 127.986 117.873C127.778 117.782 127.592 117.665 127.43 117.521C127.267 117.372 127.13 117.199 127.02 117.004C126.909 116.802 126.824 116.587 126.766 116.359C126.648 115.936 126.593 115.464 126.6 114.943C126.606 114.416 126.655 113.902 126.746 113.4C126.805 113.068 126.886 112.717 126.99 112.346C127.094 111.975 127.228 111.61 127.391 111.252C127.553 110.887 127.749 110.542 127.977 110.217C128.211 109.891 128.488 109.605 128.807 109.357C128.995 109.195 129.22 109.061 129.48 108.957C129.747 108.853 130.018 108.801 130.291 108.801H134.188C134.461 108.801 134.705 108.853 134.92 108.957C135.141 109.061 135.33 109.195 135.486 109.357ZM132.068 116.203C132.192 116.197 132.309 116.138 132.42 116.027C132.537 115.91 132.645 115.764 132.742 115.588C132.84 115.406 132.931 115.207 133.016 114.992C133.1 114.777 133.175 114.569 133.24 114.367C133.305 114.159 133.357 113.97 133.396 113.801C133.436 113.625 133.465 113.492 133.484 113.4C133.556 112.99 133.595 112.593 133.602 112.209C133.608 111.825 133.569 111.496 133.484 111.223C133.471 111.177 133.455 111.122 133.436 111.057C133.416 110.992 133.39 110.93 133.357 110.871C133.325 110.806 133.283 110.751 133.23 110.705C133.185 110.66 133.13 110.63 133.064 110.617H130.77C130.711 110.617 130.649 110.637 130.584 110.676C130.525 110.715 130.467 110.767 130.408 110.832C130.35 110.891 130.294 110.956 130.242 111.027C130.19 111.099 130.145 111.164 130.105 111.223C129.956 111.496 129.809 111.825 129.666 112.209C129.529 112.593 129.425 112.99 129.354 113.4C129.334 113.498 129.314 113.632 129.295 113.801C129.275 113.97 129.259 114.156 129.246 114.357C129.24 114.553 129.24 114.755 129.246 114.963C129.253 115.165 129.272 115.354 129.305 115.529C129.344 115.705 129.399 115.855 129.471 115.979C129.549 116.096 129.65 116.171 129.773 116.203H132.068ZM143.641 118L144.422 113.4C144.454 113.192 144.484 112.961 144.51 112.707C144.542 112.447 144.555 112.193 144.549 111.945C144.549 111.691 144.52 111.454 144.461 111.232C144.409 111.011 144.314 110.832 144.178 110.695C144.139 110.656 144.106 110.633 144.08 110.627C144.061 110.62 144.035 110.617 144.002 110.617H141.004L139.725 118H137.117L138.719 108.801H145.125C145.398 108.801 145.643 108.853 145.857 108.957C146.072 109.061 146.261 109.195 146.424 109.357C146.658 109.611 146.831 109.904 146.941 110.236C147.059 110.562 147.133 110.904 147.166 111.262C147.199 111.62 147.195 111.984 147.156 112.355C147.124 112.72 147.078 113.068 147.02 113.4L146.238 118H143.641ZM152.264 108.801L150.662 118H148.055L149.656 108.801H152.264ZM150.135 106.037L150.535 103.801H153.143L152.742 106.037H150.135ZM158.729 113.244L161.629 118H158.67L157.264 115.441L155.027 118H152.068L156.57 113.244L153.885 108.801H156.844L158.045 111.057L160.047 108.801H163.006L158.729 113.244Z" fill="#04B2A4"/>
<mask id="mask0_42_41" style="mask-type:luminance" maskUnits="userSpaceOnUse" x="0" y="0" width="177" height="87">
<path d="M0 42.2717C0.15032 40.695 0.23049 39.105 0.464321 37.5417C2.21137 25.8134 7.74649 16.2597 17.1866 9.08109C34.2963 -3.92659 58.5379 -2.18622 73.7904 12.9727C82.7194 21.8483 91.752 30.6169 100.738 39.4324C106.814 45.395 112.87 51.3811 118.98 57.3104C124.659 62.8154 131.363 66.2761 139.24 67.3852C147.097 68.4893 155.094 66.8666 161.9 62.7877C168.705 58.7089 173.906 52.4203 176.636 44.9708C176.696 44.8071 176.773 44.6368 176.84 44.4898L176.993 44.5165C176.84 46.1132 176.76 47.7233 176.522 49.3067C174.745 61.0784 169.137 70.6221 159.656 77.814C153.311 82.6863 145.684 85.6035 137.706 86.2086C124.174 87.3042 112.583 83.0251 102.902 73.4982C91.7497 62.5349 80.5871 51.5838 69.4144 40.6449C65.4393 36.7466 61.5544 32.7548 57.469 28.9734C49.0945 21.2169 39.1901 17.7829 27.8393 19.5267C15.8137 21.3706 7.05502 27.9178 1.60675 38.8244C1.13241 39.7731 0.785004 40.7852 0.38081 41.7673L0.15366 42.3085L0 42.2717ZM68.5994 47.1855C64.9616 50.7832 61.3606 54.4243 57.6761 57.9752C52.2546 63.1996 45.7908 65.0602 38.4585 63.38C29.5462 61.339 23.2695 53.6125 22.8253 44.4163C22.637 40.0241 23.8728 35.6887 26.3486 32.056C28.8244 28.4232 32.4077 25.6876 36.5645 24.2567C36.7616 24.1866 36.9486 24.1031 37.1424 24.0296C36.476 23.8504 35.7934 23.7385 35.1047 23.6955C25.8651 23.1744 17.8881 26.094 11.3408 32.6513C3.21017 40.7986 -0.0835117 54.0301 6.44037 65.8085C10.2585 72.7032 15.7936 77.8909 22.6582 81.6288C30.6987 86.0315 39.327 87.4779 48.3796 86.3656C57.5625 85.2231 65.6865 81.6422 72.4876 75.3421C76.6164 71.5206 80.5414 67.472 84.56 63.5336C84.8418 63.286 85.1362 63.053 85.4419 62.8355L69.0303 46.8014C68.8666 46.9483 68.7229 47.0686 68.5994 47.1955V47.1855ZM108.538 39.5459C112.102 35.9884 115.643 32.4074 119.227 28.8832C124.174 24.0329 130.12 22.0654 136.972 23.0809C147.681 24.6643 155.424 34.7724 154.025 45.4953C152.932 53.8731 148.272 59.5552 140.355 62.5482C140.185 62.6117 140.021 62.6818 139.848 62.752C140.639 62.9349 141.445 63.0467 142.256 63.086C149.442 63.5156 156.545 61.359 162.279 57.0064C172.474 49.447 176.446 37.0239 172.126 25.2355C167.951 13.8379 159.767 6.34193 148.409 2.3167C141.354 -0.178612 134.079 -0.566104 126.726 0.713285C117.974 2.23987 110.241 5.89765 103.814 12.0708C99.8492 15.8889 96.0177 19.8507 92.1228 23.7623C92.0392 23.8458 91.9658 23.9427 91.8488 24.0797L108.06 39.9735C108.244 39.8299 108.394 39.6962 108.538 39.5559V39.5459Z" fill="white"/>
</mask>
<g mask="url(#mask0_42_41)">
<path d="M88.4984 -57.4565C32.8132 -57.4565 -12.3296 -12.3171 -12.3296 43.368C-12.3296 99.0532 32.8132 144.196 88.4984 144.196C144.184 144.196 189.313 99.0599 189.313 43.368C189.313 -12.3238 144.184 -57.4565 88.4984 -57.4565ZM185.468 25.9877C185.471 26.5838 185.264 27.162 184.884 27.6215C184.505 28.0809 183.976 28.3925 183.39 28.5018C182.804 28.6111 182.198 28.5113 181.678 28.2197C181.158 27.9282 180.757 27.4634 180.544 26.9063H139.083C138.957 26.906 138.833 26.8801 138.719 26.8301C138.604 26.7801 138.5 26.7072 138.415 26.6157C138.346 26.5749 138.282 26.5267 138.224 26.4721L134.506 22.7542C133.948 22.9442 133.341 22.9332 132.79 22.7229C132.239 22.5126 131.779 22.1163 131.489 21.6026C131.199 21.0889 131.098 20.4901 131.203 19.9097C131.308 19.3294 131.613 18.804 132.064 18.4246C132.516 18.0451 133.086 17.8354 133.676 17.8317C134.265 17.828 134.838 18.0306 135.294 18.4044C135.75 18.7782 136.061 19.2997 136.174 19.8787C136.286 20.4577 136.193 21.0577 135.909 21.575L139.417 25.0825H180.544C180.756 24.526 181.157 24.0615 181.676 23.7699C182.196 23.4783 182.801 23.378 183.386 23.4864C183.972 23.5949 184.501 23.9053 184.881 24.3635C185.262 24.8217 185.469 25.3989 185.468 25.9944V25.9877ZM157.833 31.6665C157.835 32.0501 157.7 32.4217 157.45 32.7133C157.201 33.0048 156.855 33.1966 156.475 33.2535C156.096 33.3104 155.709 33.2285 155.385 33.0228C155.061 32.8172 154.823 32.5017 154.713 32.1341H135.111C134.993 32.5022 134.745 32.8145 134.412 33.0121C134.08 33.2096 133.687 33.2789 133.308 33.2068C132.928 33.1347 132.588 32.9262 132.351 32.6206C132.114 32.315 131.998 31.9334 132.023 31.5477C132.048 31.1621 132.214 30.799 132.488 30.5268C132.763 30.2547 133.127 30.0924 133.513 30.0704C133.899 30.0485 134.279 30.1684 134.583 30.4076C134.887 30.6469 135.092 30.9889 135.161 31.3692H154.666C154.738 30.9771 154.955 30.6264 155.273 30.386C155.592 30.1456 155.988 30.033 156.385 30.0703C156.782 30.1075 157.151 30.292 157.419 30.5874C157.687 30.8828 157.834 31.2677 157.833 31.6665ZM171.101 -8.50235C171.76 -8.47846 172.385 -8.19966 172.843 -7.7246C173.301 -7.24953 173.557 -6.61526 173.557 -5.95527C173.557 -5.29527 173.301 -4.661 172.843 -4.18594C172.385 -3.71088 171.76 -3.43207 171.101 -3.40818C170.78 -3.40735 170.463 -3.46861 170.166 -3.58856L164.126 2.44428C164.36 2.99661 164.394 3.6136 164.22 4.18796C164.047 4.76232 163.677 5.25773 163.177 5.58802C162.676 5.91831 162.075 6.0626 161.479 5.99579C160.882 5.92899 160.328 5.65531 159.913 5.22236C159.498 4.78941 159.247 4.22457 159.205 3.62606C159.163 3.02755 159.332 2.43324 159.683 1.94646C160.034 1.45969 160.544 1.11126 161.125 0.961754C161.706 0.812246 162.321 0.871121 162.863 1.12814L168.819 -4.82787C168.626 -5.21586 168.536 -5.64676 168.556 -6.07966C168.576 -6.51255 168.707 -6.93305 168.936 -7.30122C169.164 -7.6694 169.483 -7.97301 169.862 -8.18323C170.241 -8.39346 170.667 -8.50331 171.101 -8.50235ZM166.621 -14.3448C166.863 -14.3492 167.103 -14.2989 167.322 -14.1974C167.542 -14.096 167.735 -13.9461 167.888 -13.7591C168.042 -13.5721 168.151 -13.3528 168.207 -13.1176C168.263 -12.8825 168.265 -12.6377 168.214 -12.4015C168.162 -12.1654 168.057 -11.9441 167.907 -11.7542C167.758 -11.5644 167.567 -11.4109 167.349 -11.3054C167.132 -11.1998 166.893 -11.145 166.651 -11.1449C166.409 -11.1448 166.171 -11.1996 165.953 -11.305L156.627 -1.97513V8.64748H176.572C176.666 8.26781 176.895 7.93551 177.217 7.71332C177.539 7.49114 177.931 7.39445 178.319 7.44153C178.707 7.4886 179.064 7.67618 179.324 7.96883C179.583 8.26148 179.726 8.63896 179.726 9.02996C179.726 9.42097 179.583 9.79844 179.324 10.0911C179.064 10.3837 178.707 10.5713 178.319 10.6184C177.931 10.6655 177.539 10.5688 177.217 10.3466C176.895 10.1244 176.666 9.79211 176.572 9.41244H156.243C156.141 9.41156 156.044 9.3707 155.973 9.29875C155.902 9.22681 155.862 9.1296 155.862 9.02829V-2.11543C155.863 -2.14749 155.87 -2.17909 155.882 -2.20896C155.892 -2.28799 155.927 -2.36172 155.982 -2.4194L165.359 -11.796C165.179 -12.0326 165.07 -12.3145 165.042 -12.61C165.015 -12.9055 165.07 -13.2028 165.203 -13.4684C165.335 -13.7341 165.539 -13.9575 165.791 -14.1135C166.044 -14.2695 166.335 -14.3519 166.631 -14.3515L166.621 -14.3448ZM160.178 -18.9479C160.18 -19.3056 160.303 -19.652 160.525 -19.9321C160.748 -20.2122 161.057 -20.41 161.405 -20.4939C161.753 -20.5778 162.118 -20.543 162.444 -20.3951C162.77 -20.2472 163.036 -19.9947 163.202 -19.6777C163.368 -19.3607 163.423 -18.9975 163.358 -18.6457C163.293 -18.2939 163.113 -17.9738 162.846 -17.7363C162.578 -17.4988 162.239 -17.3576 161.882 -17.335C161.525 -17.3124 161.171 -17.4098 160.876 -17.6117L134.196 9.05501L145.102 19.9616H180.224C180.317 19.5801 180.547 19.246 180.87 19.0226C181.193 18.7992 181.587 18.7018 181.977 18.7489C182.367 18.796 182.726 18.9843 182.986 19.2782C183.247 19.5721 183.391 19.9513 183.391 20.344C183.391 20.7368 183.247 21.116 182.986 21.4099C182.726 21.7038 182.367 21.8921 181.977 21.9392C181.587 21.9863 181.193 21.8889 180.87 21.6655C180.547 21.442 180.317 21.108 180.224 20.7265H144.972C144.897 20.7247 144.825 20.7002 144.765 20.6564C144.714 20.6384 144.667 20.6099 144.628 20.5729L133.394 9.33895C133.337 9.28208 133.3 9.20869 133.288 9.12941C133.276 9.05013 133.29 8.96908 133.327 8.89801C133.343 8.84352 133.373 8.79408 133.414 8.75438L160.371 -18.1896C160.244 -18.4219 160.177 -18.6828 160.178 -18.9479ZM152.087 14.7004C152.089 15.0089 152.001 15.3113 151.835 15.5712C151.668 15.8311 151.43 16.0373 151.15 16.1651C150.869 16.2928 150.557 16.3367 150.252 16.2913C149.946 16.2459 149.661 16.1133 149.429 15.9093C149.198 15.7054 149.03 15.4389 148.947 15.1418C148.863 14.8448 148.867 14.53 148.959 14.2352C149.05 13.9405 149.224 13.6784 149.461 13.4806C149.698 13.2828 149.987 13.1577 150.293 13.1203V5.0064C149.909 4.95602 149.557 4.76686 149.302 4.4746C149.048 4.18233 148.91 3.80715 148.913 3.41977C148.916 3.0324 149.061 2.65961 149.32 2.37168C149.579 2.08374 149.935 1.90056 150.32 1.85667C150.705 1.81278 151.092 1.91121 151.41 2.1334C151.727 2.3556 151.952 2.68621 152.042 3.0629C152.133 3.43959 152.082 3.83633 151.9 4.17834C151.718 4.52034 151.418 4.78398 151.055 4.91954V13.2105C151.358 13.3242 151.62 13.5277 151.804 13.794C151.988 14.0602 152.087 14.3765 152.087 14.7004ZM126.349 -44.5123C126.348 -44.8127 126.431 -45.1075 126.589 -45.3628C126.747 -45.6182 126.974 -45.8238 127.244 -45.9562C127.514 -46.0885 127.815 -46.1423 128.114 -46.1113C128.413 -46.0804 128.697 -45.9659 128.934 -45.781C129.17 -45.5961 129.35 -45.3483 129.453 -45.0659C129.556 -44.7835 129.576 -44.478 129.513 -44.1842C129.45 -43.8905 129.306 -43.6204 129.097 -43.4049C128.887 -43.1894 128.622 -43.0372 128.33 -42.9657V-39.2144C128.707 -39.121 129.036 -38.8928 129.257 -38.573C129.477 -38.2532 129.573 -37.8638 129.526 -37.4784C129.479 -37.0929 129.292 -36.7379 129.001 -36.4805C128.711 -36.2231 128.336 -36.081 127.947 -36.081C127.559 -36.081 127.184 -36.2231 126.893 -36.4805C126.603 -36.7379 126.416 -37.0929 126.369 -37.4784C126.322 -37.8638 126.418 -38.2532 126.638 -38.573C126.858 -38.8928 127.188 -39.121 127.565 -39.2144V-42.9657C127.218 -43.0497 126.91 -43.2479 126.689 -43.5284C126.468 -43.8089 126.349 -44.1555 126.349 -44.5123ZM113.963 -48.8549C113.961 -49.3114 114.082 -49.7598 114.313 -50.1534C114.545 -50.547 114.877 -50.8714 115.276 -51.0925C115.676 -51.3136 116.127 -51.4235 116.583 -51.4106C117.04 -51.3977 117.484 -51.2624 117.87 -51.0191C118.256 -50.7757 118.57 -50.433 118.779 -50.027C118.987 -49.6209 119.083 -49.1663 119.056 -48.7107C119.028 -48.255 118.879 -47.8151 118.624 -47.4368C118.368 -47.0584 118.016 -46.7556 117.604 -46.56V-33.0312C118.139 -32.7748 118.568 -32.3393 118.815 -31.8C119.063 -31.2607 119.114 -30.6517 118.96 -30.0786C118.806 -29.5054 118.457 -29.0043 117.972 -28.662C117.487 -28.3196 116.898 -28.1578 116.306 -28.2044C115.714 -28.2509 115.158 -28.5031 114.732 -28.9171C114.307 -29.3311 114.04 -29.8808 113.978 -30.471C113.915 -31.0612 114.061 -31.6546 114.39 -32.1485C114.719 -32.6423 115.211 -33.0054 115.78 -33.1749V-46.4097C115.255 -46.5664 114.794 -46.8884 114.467 -47.3277C114.14 -47.7671 113.963 -48.3003 113.963 -48.8482V-48.8549ZM109.266 -36.4285C109.265 -36.7287 109.349 -37.0232 109.508 -37.2781C109.666 -37.533 109.893 -37.7382 110.163 -37.8701C110.433 -38.002 110.734 -38.0553 111.033 -38.0239C111.332 -37.9925 111.615 -37.8778 111.852 -37.6927C112.088 -37.5077 112.268 -37.2598 112.37 -36.9775C112.473 -36.6952 112.493 -36.3898 112.43 -36.0962C112.367 -35.8026 112.223 -35.5327 112.013 -35.3174C111.804 -35.1021 111.538 -34.95 111.247 -34.8785V-26.4973C111.626 -26.4039 111.959 -26.1746 112.181 -25.8529C112.403 -25.5311 112.5 -25.1392 112.453 -24.751C112.406 -24.3628 112.218 -24.0053 111.925 -23.746C111.633 -23.4867 111.255 -23.3436 110.864 -23.3436C110.473 -23.3436 110.096 -23.4867 109.803 -23.746C109.511 -24.0053 109.323 -24.3628 109.276 -24.751C109.229 -25.1392 109.325 -25.5311 109.548 -25.8529C109.77 -26.1746 110.102 -26.4039 110.482 -26.4973V-34.8718C110.135 -34.9575 109.827 -35.1566 109.607 -35.4375C109.387 -35.7183 109.267 -36.0648 109.266 -36.4218V-36.4285ZM105.388 -54.2664C106.063 -54.2655 106.711 -53.9967 107.189 -53.5189C107.667 -53.0411 107.936 -52.3934 107.936 -51.7177C107.936 -51.1938 107.774 -50.6828 107.472 -50.2547C107.17 -49.8265 106.743 -49.5021 106.249 -49.3259V-10.1525L134.864 -38.7601C134.7 -39.1034 134.615 -39.4787 134.613 -39.8591C134.612 -40.4064 134.786 -40.9397 135.111 -41.3804C135.435 -41.821 135.893 -42.1456 136.416 -42.3062C136.939 -42.4669 137.5 -42.4551 138.016 -42.2726C138.532 -42.09 138.976 -41.7465 139.282 -41.2926C139.588 -40.8387 139.739 -40.2985 139.715 -39.7517C139.69 -39.205 139.49 -38.6806 139.145 -38.256C138.8 -37.8315 138.327 -37.5292 137.797 -37.3938C137.266 -37.2584 136.707 -37.297 136.2 -37.5041L106.006 -7.30982C105.834 -7.13969 105.602 -7.04422 105.361 -7.04422C105.119 -7.04422 104.888 -7.13969 104.716 -7.30982C104.701 -7.3268 104.686 -7.34464 104.673 -7.36326C104.524 -7.52833 104.442 -7.74252 104.442 -7.96454V-49.356C103.977 -49.5455 103.578 -49.8688 103.296 -50.285C103.014 -50.7012 102.862 -51.1916 102.859 -51.6943C102.856 -52.0293 102.919 -52.3616 103.044 -52.6722C103.17 -52.9828 103.355 -53.2657 103.59 -53.5046C103.825 -53.7435 104.105 -53.9337 104.413 -54.0644C104.721 -54.1952 105.053 -54.2638 105.388 -54.2664ZM118.108 -7.95786C118.111 -7.59665 117.993 -7.24486 117.772 -6.95928C117.55 -6.6737 117.239 -6.47098 116.889 -6.38385C116.538 -6.29672 116.169 -6.33027 115.839 -6.47907C115.51 -6.62787 115.241 -6.88325 115.075 -7.20398C114.909 -7.52471 114.855 -7.89209 114.924 -8.24681C114.992 -8.60153 115.178 -8.9229 115.451 -9.15904C115.724 -9.39519 116.069 -9.53233 116.43 -9.54834C116.791 -9.56435 117.147 -9.45829 117.44 -9.24728L132.292 -24.0955C132.073 -24.4299 131.985 -24.8326 132.043 -25.2276C132.102 -25.6227 132.303 -25.9826 132.609 -26.2394C132.914 -26.4963 133.304 -26.6322 133.703 -26.6216C134.102 -26.6109 134.483 -26.4545 134.775 -26.1817C135.067 -25.9089 135.248 -25.5388 135.286 -25.1412C135.323 -24.7436 135.213 -24.3462 134.977 -24.0239C134.742 -23.7017 134.396 -23.477 134.006 -23.3924C133.615 -23.3077 133.208 -23.3689 132.859 -23.5644L117.944 -8.64933C118.052 -8.43224 118.108 -8.19337 118.108 -7.95118V-7.95786ZM99.6955 -55.0848C100.371 -55.0839 101.018 -54.815 101.496 -54.3371C101.973 -53.8592 102.241 -53.2115 102.241 -52.5361C102.241 -51.9937 102.068 -51.4654 101.747 -51.028C101.427 -50.5906 100.975 -50.267 100.457 -50.1042V-3.15764H121.879L148.369 -29.6474C148.208 -29.9841 148.124 -30.3529 148.125 -30.7263C148.125 -31.2726 148.3 -31.8046 148.625 -32.2434C148.95 -32.6823 149.408 -33.0048 149.931 -33.163C150.454 -33.3212 151.014 -33.3068 151.528 -33.122C152.042 -32.9371 152.483 -32.5915 152.785 -32.1365C153.087 -31.6815 153.235 -31.1412 153.206 -30.5957C153.177 -30.0502 152.973 -29.5285 152.625 -29.1079C152.276 -28.6873 151.801 -28.3902 151.271 -28.2605C150.74 -28.1308 150.182 -28.1755 149.679 -28.388L122.995 -1.70121C122.91 -1.59019 122.801 -1.50019 122.676 -1.43821C122.551 -1.37622 122.413 -1.34391 122.274 -1.34379H99.5586C99.3161 -1.34467 99.0838 -1.44138 98.9123 -1.61284C98.7409 -1.7843 98.6442 -2.01659 98.6433 -2.25906V-50.2245C98.2007 -50.4273 97.8256 -50.753 97.5627 -51.1627C97.2997 -51.5725 97.16 -52.0492 97.1601 -52.5361C97.1601 -53.2097 97.4268 -53.856 97.9019 -54.3336C98.377 -54.8112 99.0219 -55.0813 99.6955 -55.0848ZM139.206 47.9511H139.256C139.406 47.9507 139.554 47.9874 139.686 48.0579C139.819 48.1284 139.931 48.2306 140.015 48.3553C140.118 48.5058 140.172 48.6841 140.172 48.8664C140.172 48.8664 140.172 48.8931 140.172 48.9065V59.0848H159.583C159.796 58.529 160.198 58.0654 160.717 57.7746C161.237 57.4837 161.842 57.3839 162.427 57.4924C163.012 57.6009 163.541 57.9109 163.922 58.3687C164.303 58.8265 164.511 59.4031 164.511 59.9984C164.511 60.5938 164.303 61.1704 163.922 61.6282C163.541 62.0859 163.012 62.396 162.427 62.5045C161.842 62.613 161.237 62.5132 160.717 62.2223C160.198 61.9314 159.796 61.4679 159.583 60.912H139.263C139.02 60.9077 138.788 60.8085 138.617 60.6356C138.446 60.4627 138.349 60.2299 138.348 59.9867V49.7817H130.331C130.088 50.3243 129.663 50.7648 129.13 51.0269C128.596 51.289 127.988 51.3561 127.41 51.2167C126.832 51.0773 126.322 50.74 125.966 50.2635C125.611 49.7869 125.434 49.2011 125.465 48.6076C125.497 48.014 125.735 47.4502 126.139 47.0139C126.542 46.5776 127.086 46.2962 127.675 46.2187C128.264 46.1411 128.862 46.2722 129.365 46.5893C129.868 46.9063 130.244 47.3893 130.428 47.9545L139.206 47.9511ZM131.991 43.0507C131.993 42.6574 132.139 42.2786 132.403 41.9868C132.666 41.6949 133.029 41.5107 133.42 41.4693C133.811 41.4279 134.203 41.5323 134.522 41.7625C134.841 41.9927 135.064 42.3324 135.148 42.7166H166.147C166.23 42.3338 166.451 41.9947 166.768 41.7636C167.084 41.5324 167.474 41.4252 167.864 41.4621C168.255 41.4989 168.618 41.6774 168.885 41.9638C169.153 42.2502 169.306 42.6246 169.316 43.0164C169.327 43.4081 169.193 43.79 168.941 44.09C168.689 44.39 168.336 44.5873 167.948 44.6445C167.56 44.7018 167.165 44.6151 166.837 44.4009C166.509 44.1866 166.27 43.8596 166.167 43.4816H135.128C135.026 43.8541 134.792 44.177 134.47 44.3904C134.148 44.6038 133.76 44.6933 133.377 44.6424C132.994 44.5914 132.643 44.4034 132.388 44.1132C132.133 43.823 131.992 43.4503 131.991 43.0641V43.0507ZM114.955 25.9877C114.953 25.6873 115.036 25.3925 115.195 25.1372C115.353 24.8819 115.58 24.6762 115.85 24.5439C116.119 24.4115 116.421 24.3577 116.72 24.3887C117.019 24.4197 117.303 24.5342 117.539 24.7191C117.776 24.904 117.956 25.1518 118.059 25.4342C118.161 25.7165 118.182 26.0221 118.119 26.3158C118.056 26.6096 117.912 26.8797 117.702 27.0951C117.493 27.3106 117.227 27.4628 116.936 27.5343V35.8287C117.315 35.9221 117.648 36.1514 117.87 36.4731C118.092 36.7949 118.189 37.1868 118.142 37.575C118.094 37.9631 117.907 38.3206 117.614 38.5799C117.322 38.8392 116.944 38.9824 116.553 38.9824C116.162 38.9824 115.785 38.8392 115.492 38.5799C115.199 38.3206 115.012 37.9631 114.965 37.575C114.918 37.1868 115.014 36.7949 115.236 36.4731C115.459 36.1514 115.791 35.9221 116.171 35.8287V27.5343C115.825 27.4491 115.518 27.2504 115.299 26.9699C115.08 26.6895 114.961 26.3437 114.961 25.9877H114.955ZM116.321 48.5056C116.347 48.4815 116.376 48.4613 116.408 48.4455L121.863 42.9906V21.8957C121.477 21.8172 121.133 21.6001 120.897 21.2855C120.66 20.9708 120.547 20.5804 120.579 20.1881C120.611 19.7957 120.785 19.4286 121.069 19.1561C121.353 18.8835 121.727 18.7245 122.121 18.7091C122.514 18.6936 122.899 18.8228 123.204 19.0722C123.508 19.3215 123.711 19.6739 123.773 20.0625C123.836 20.4512 123.754 20.8492 123.543 21.1815C123.332 21.5137 123.006 21.7571 122.628 21.8656V43.0741C122.63 43.0907 122.63 43.1075 122.628 43.1242C122.632 43.1774 122.624 43.2309 122.606 43.2811C122.587 43.3312 122.558 43.3768 122.521 43.4148L117.159 48.7896L139.44 71.0703H160.421C160.515 70.6907 160.744 70.3584 161.066 70.1362C161.388 69.914 161.78 69.8173 162.168 69.8644C162.556 69.9115 162.913 70.099 163.173 70.3917C163.432 70.6843 163.575 71.0618 163.575 71.4528C163.575 71.8438 163.432 72.2213 163.173 72.5139C162.913 72.8066 162.556 72.9942 162.168 73.0412C161.78 73.0883 161.388 72.9916 161.066 72.7694C160.744 72.5473 160.515 72.215 160.421 71.8353H139.286C139.234 71.8374 139.182 71.8288 139.133 71.8098C139.084 71.7908 139.04 71.762 139.003 71.7251L116.328 49.0501C116.291 49.0147 116.263 48.9723 116.243 48.9256C116.223 48.8788 116.213 48.8286 116.213 48.7779C116.213 48.7272 116.223 48.677 116.243 48.6302C116.263 48.5835 116.291 48.5411 116.328 48.5056H116.321ZM61.4341 37.7594C61.3406 38.1391 61.1114 38.4714 60.7896 38.6936C60.4679 38.9158 60.0759 39.0125 59.6878 38.9654C59.2996 38.9183 58.9421 38.7307 58.6828 38.4381C58.4235 38.1454 58.2803 37.768 58.2803 37.377C58.2803 36.9859 58.4235 36.6085 58.6828 36.3158C58.9421 36.0232 59.2996 35.8356 59.6878 35.7885C60.0759 35.7414 60.4679 35.8381 60.7896 36.0603C61.1114 36.2825 61.3406 36.6148 61.4341 36.9945H81.0492C81.1426 36.6157 81.3715 36.2843 81.6926 36.0627C82.0137 35.8412 82.4048 35.7448 82.7921 35.7919C83.1793 35.839 83.536 36.0262 83.7946 36.3182C84.0533 36.6102 84.1961 36.9868 84.1961 37.377C84.1961 37.7671 84.0533 38.1437 83.7946 38.4357C83.536 38.7277 83.1793 38.915 82.7921 38.962C82.4048 39.0091 82.0137 38.9127 81.6926 38.6912C81.3715 38.4696 81.1426 38.1382 81.0492 37.7594H61.4341ZM78.5338 43.0874C78.5331 43.4772 78.3899 43.8533 78.1311 44.1448C77.8723 44.4362 77.5159 44.623 77.1289 44.6698C76.742 44.7166 76.3513 44.6203 76.0304 44.399C75.7096 44.1777 75.4808 43.8466 75.3871 43.4682H67.016C66.9111 43.8412 66.6734 44.1629 66.3476 44.3727C66.0219 44.5825 65.6307 44.6658 65.2477 44.6071C64.8648 44.5483 64.5165 44.3514 64.2687 44.0535C64.0209 43.7557 63.8907 43.3775 63.9025 42.9902C63.9144 42.603 64.0675 42.2334 64.333 41.9513C64.5985 41.6692 64.9581 41.4939 65.3439 41.4586C65.7298 41.4233 66.1152 41.5304 66.4275 41.7597C66.7398 41.989 66.9574 42.3246 67.0393 42.7033H75.3905C75.4842 42.3247 75.7132 41.9934 76.0344 41.7721C76.3556 41.5508 76.7467 41.4547 77.1339 41.5019C77.5211 41.5492 77.8776 41.7366 78.1361 42.0287C78.3946 42.3208 78.5373 42.6974 78.5372 43.0874H78.5338ZM67.026 32.1308C66.9329 32.5089 66.7046 32.8398 66.3842 33.0611C66.0638 33.2824 65.6735 33.3787 65.287 33.3318C64.9004 33.2849 64.5444 33.0981 64.2862 32.8067C64.028 32.5153 63.8854 32.1394 63.8854 31.75C63.8854 31.3606 64.028 30.9847 64.2862 30.6933C64.5444 30.4018 64.9004 30.215 65.287 30.1682C65.6735 30.1213 66.0638 30.2176 66.3842 30.4389C66.7046 30.6601 66.9329 30.9911 67.026 31.3692H88.1209L110.478 9.01827L105.164 3.70362H84.1524C84.0888 4.09021 83.8858 4.44011 83.5818 4.68726C83.2778 4.93441 82.8939 5.06171 82.5024 5.04511C82.111 5.02852 81.7392 4.86918 81.4572 4.59719C81.1752 4.32519 81.0025 3.95937 80.9718 3.56878C80.9411 3.1782 81.0545 2.78989 81.2905 2.47718C81.5266 2.16447 81.8689 1.949 82.253 1.87145C82.637 1.7939 83.0361 1.85964 83.375 2.05626C83.7139 2.25288 83.969 2.56677 84.0923 2.93866H105.201C105.233 2.94019 105.264 2.94696 105.294 2.95871C105.35 2.95153 105.407 2.95711 105.461 2.97504C105.515 2.99297 105.564 3.02278 105.605 3.06226L111.284 8.74101C111.354 8.81338 111.394 8.91048 111.394 9.01159C111.394 9.11269 111.354 9.20979 111.284 9.28217C111.269 9.29335 111.253 9.3034 111.237 9.31223L88.5551 32.0172C88.4826 32.0876 88.3856 32.1271 88.2846 32.1274L67.026 32.1308ZM77.0473 8.68089H97.9952C98.0998 8.30767 98.3374 7.98563 98.6631 7.77555C98.9888 7.56547 99.3801 7.48187 99.7633 7.54053C100.146 7.59919 100.495 7.79606 100.743 8.09397C100.991 8.39189 101.121 8.77025 101.109 9.15765C101.097 9.54506 100.944 9.91471 100.678 10.1969C100.412 10.479 100.053 10.6541 99.6666 10.6892C99.2806 10.7242 98.8951 10.6168 98.5829 10.3871C98.2707 10.1574 98.0533 9.82143 97.9719 9.44251H76.9271C76.8401 9.44308 76.7559 9.41224 76.6899 9.35566C76.6349 9.33671 76.5847 9.30592 76.5429 9.26546L60.7059 -6.60498C60.4066 -6.41416 60.0523 -6.32848 59.6989 -6.3615C59.3455 -6.39452 59.0131 -6.54435 58.7544 -6.78732C58.4956 -7.03029 58.3252 -7.35254 58.2701 -7.70317C58.2149 -8.0538 58.2782 -8.41281 58.4498 -8.72349C58.6214 -9.03416 58.8917 -9.27879 59.2179 -9.41872C59.5441 -9.55865 59.9076 -9.58591 60.251 -9.49618C60.5944 -9.40646 60.8982 -9.20487 61.1142 -8.92327C61.3303 -8.64166 61.4464 -8.29609 61.4441 -7.94116C61.443 -7.6642 61.3693 -7.39238 61.2303 -7.15282L77.0473 8.68089ZM71.2617 13.127C71.6182 13.1279 71.9642 13.2481 72.2445 13.4685C72.5248 13.6888 72.7233 13.9967 72.8083 14.3429H92.2898C92.3832 13.9633 92.6125 13.631 92.9342 13.4088C93.256 13.1866 93.6479 13.0899 94.0361 13.137C94.4242 13.1841 94.7817 13.3716 95.041 13.6643C95.3004 13.9569 95.4435 14.3344 95.4435 14.7254C95.4435 15.1164 95.3004 15.4939 95.041 15.7865C94.7817 16.0792 94.4242 16.2668 94.0361 16.3139C93.6479 16.3609 93.256 16.2642 92.9342 16.0421C92.6125 15.8199 92.3832 15.4876 92.2898 15.1079H72.8217C72.7496 15.3985 72.5973 15.6631 72.3821 15.8713C72.1669 16.0795 71.8975 16.223 71.6046 16.2854C71.3118 16.3478 71.0073 16.3266 70.7259 16.2242C70.4445 16.1219 70.1975 15.9424 70.0133 15.7064C69.829 15.4704 69.7148 15.1873 69.6837 14.8895C69.6526 14.5917 69.7059 14.2911 69.8375 14.0221C69.9691 13.7531 70.1736 13.5266 70.4278 13.3683C70.682 13.21 70.9756 13.1264 71.275 13.127H71.2617ZM92.3365 -52.977C92.3365 -53.4008 92.5046 -53.8073 92.804 -54.1073C93.1033 -54.4072 93.5095 -54.5762 93.9333 -54.5771C94.3574 -54.5762 94.7638 -54.4073 95.0637 -54.1075C95.3636 -53.8076 95.5325 -53.4011 95.5333 -52.977C95.5319 -52.6206 95.4114 -52.2749 95.1912 -51.9947C94.9709 -51.7146 94.6634 -51.5159 94.3174 -51.4304V-32.2796C94.6943 -32.1862 95.0241 -31.9581 95.2444 -31.6383C95.4647 -31.3185 95.5603 -30.9291 95.5133 -30.5436C95.4662 -30.1581 95.2797 -29.8032 94.989 -29.5458C94.6982 -29.2883 94.3233 -29.1462 93.9349 -29.1462C93.5466 -29.1462 93.1717 -29.2883 92.8809 -29.5458C92.5901 -29.8032 92.4036 -30.1581 92.3566 -30.5436C92.3095 -30.9291 92.4052 -31.3185 92.6255 -31.6383C92.8458 -31.9581 93.1755 -32.1862 93.5524 -32.2796V-51.4304C93.2056 -51.5143 92.8971 -51.7125 92.6766 -51.9931C92.456 -52.2736 92.3363 -52.6202 92.3365 -52.977ZM76.5496 -15.23V-36.2748C76.5494 -36.3439 76.5684 -36.4116 76.6043 -36.4706C76.6403 -36.5295 76.6919 -36.5774 76.7534 -36.6088L86.9217 -46.7738C86.7506 -47.0794 86.685 -47.4328 86.7349 -47.7793C86.7849 -48.1259 86.9476 -48.4464 87.1979 -48.6913C87.4483 -48.9361 87.7723 -49.0917 88.1199 -49.1339C88.4676 -49.1761 88.8194 -49.1026 89.1211 -48.9248C89.4228 -48.747 89.6575 -48.4748 89.7889 -48.1502C89.9204 -47.8257 89.9412 -47.4668 89.8483 -47.1292C89.7554 -46.7916 89.5538 -46.494 89.2748 -46.2824C88.9957 -46.0709 88.6548 -45.9571 88.3046 -45.9587C87.9996 -45.9594 87.7013 -46.0488 87.4461 -46.216L77.3146 -36.0811V-15.1832C77.6857 -15.0751 78.0044 -14.835 78.2107 -14.5081C78.417 -14.1812 78.4966 -13.7902 78.4345 -13.4087C78.3724 -13.0271 78.1729 -12.6815 77.8736 -12.4369C77.5743 -12.1924 77.1958 -12.0657 76.8096 -12.0809C76.4233 -12.0961 76.056 -12.252 75.7768 -12.5193C75.4975 -12.7867 75.3258 -13.1469 75.2938 -13.5321C75.2618 -13.9173 75.3719 -14.3009 75.6032 -14.6106C75.8345 -14.9203 76.1711 -15.1347 76.5496 -15.2133V-15.23ZM84.1758 -19.3621C84.1764 -19.0627 84.0928 -18.7691 83.9345 -18.5149C83.7763 -18.2607 83.5497 -18.0562 83.2807 -17.9246C83.0117 -17.793 82.7112 -17.7397 82.4134 -17.7708C82.1155 -17.8019 81.8325 -17.9161 81.5964 -18.1004C81.3604 -18.2847 81.181 -18.5316 81.0786 -18.813C80.9762 -19.0944 80.955 -19.3989 81.0174 -19.6917C81.0798 -19.9846 81.2234 -20.254 81.4316 -20.4692C81.6398 -20.6844 81.9043 -20.8367 82.1949 -20.9088V-28.8791C81.8153 -28.9725 81.483 -29.2018 81.2608 -29.5235C81.0386 -29.8453 80.9419 -30.2372 80.989 -30.6254C81.0361 -31.0135 81.2236 -31.371 81.5163 -31.6303C81.8089 -31.8896 82.1864 -32.0328 82.5774 -32.0328C82.9684 -32.0328 83.3459 -31.8896 83.6386 -31.6303C83.9312 -31.371 84.1188 -31.0135 84.1659 -30.6254C84.2129 -30.2372 84.1162 -29.8453 83.8941 -29.5235C83.6719 -29.2018 83.3396 -28.9725 82.9599 -28.8791V-20.9021C83.3067 -20.8181 83.6152 -20.6199 83.8358 -20.3394C84.0563 -20.0589 84.1761 -19.7123 84.1758 -19.3555V-19.3621ZM69.6917 -51.711C69.6917 -52.1353 69.8602 -52.5423 70.1603 -52.8424C70.4604 -53.1425 70.8674 -53.3111 71.2917 -53.3111C71.5017 -53.3111 71.7096 -53.2696 71.9035 -53.1892C72.0975 -53.1087 72.2737 -52.9908 72.422 -52.8422C72.5703 -52.6936 72.6878 -52.5172 72.7679 -52.3231C72.8479 -52.1289 72.8889 -51.9209 72.8885 -51.711C72.8877 -51.3549 72.768 -51.0092 72.5483 -50.729C72.3286 -50.4488 72.0215 -50.25 71.6759 -50.1644V-20.9021C72.0565 -20.8086 72.3896 -20.579 72.6124 -20.2566C72.8353 -19.9342 72.9323 -19.5414 72.8852 -19.1523C72.8381 -18.7633 72.6502 -18.4049 72.3569 -18.145C72.0636 -17.8851 71.6853 -17.7415 71.2934 -17.7415C70.9015 -17.7415 70.5232 -17.8851 70.2299 -18.145C69.9366 -18.4049 69.7487 -18.7633 69.7016 -19.1523C69.6545 -19.5414 69.7515 -19.9342 69.9744 -20.2566C70.1972 -20.579 70.5303 -20.8086 70.9109 -20.9021V-50.1644C70.5638 -50.2482 70.2548 -50.4463 70.0337 -50.7267C69.8126 -51.0072 69.6922 -51.3538 69.6917 -51.711ZM63.8993 -50.3748C63.8993 -50.7983 64.0676 -51.2044 64.367 -51.5039C64.6664 -51.8033 65.0726 -51.9715 65.4961 -51.9715C65.706 -51.972 65.914 -51.931 66.1081 -51.851C66.3022 -51.7709 66.4787 -51.6534 66.6273 -51.505C66.7759 -51.3567 66.8938 -51.1806 66.9743 -50.9866C67.0547 -50.7927 67.0961 -50.5848 67.0961 -50.3748C67.0964 -50.018 66.9766 -49.6714 66.7561 -49.3909C66.5355 -49.1103 66.227 -48.9121 65.8802 -48.8282V-26.4973C66.2601 -26.4042 66.5928 -26.1752 66.8153 -25.8535C67.0378 -25.5318 67.1348 -25.1398 67.0879 -24.7514C67.0411 -24.3631 66.8535 -24.0054 66.5609 -23.7459C66.2682 -23.4864 65.8906 -23.3432 65.4994 -23.3432C65.1082 -23.3432 64.7306 -23.4864 64.4379 -23.7459C64.1453 -24.0054 63.9577 -24.3631 63.9109 -24.7514C63.864 -25.1398 63.961 -25.5318 64.1835 -25.8535C64.406 -26.1752 64.7387 -26.4042 65.1186 -26.4973V-48.8315C64.7714 -48.9166 64.4628 -49.1154 64.2418 -49.3963C64.0208 -49.6773 63.9002 -50.0241 63.8993 -50.3815V-50.3748ZM54.2755 -49.5564C54.8786 -49.5575 55.4625 -49.3445 55.9232 -48.9552C56.3839 -48.5659 56.6913 -48.0257 56.7908 -47.4308C56.8903 -46.836 56.7753 -46.2251 56.4664 -45.7071C56.1574 -45.1891 55.6746 -44.7977 55.1039 -44.6025V-25.3616L76.9271 -3.53845L87.3927 -14.0041V-34.0467C86.8369 -34.2601 86.3733 -34.6614 86.0824 -35.1809C85.7915 -35.7004 85.6917 -36.3053 85.8002 -36.8907C85.9088 -37.4761 86.2188 -38.005 86.6766 -38.3857C87.1343 -38.7664 87.7109 -38.9749 88.3063 -38.9749C88.9017 -38.9749 89.4783 -38.7664 89.936 -38.3857C90.3938 -38.005 90.7038 -37.4761 90.8123 -36.8907C90.9209 -36.3053 90.821 -35.7004 90.5302 -35.1809C90.2393 -34.6614 89.7757 -34.2601 89.2199 -34.0467V-13.67C89.2182 -13.5333 89.1863 -13.3987 89.1264 -13.2758C89.0788 -13.1603 89.0097 -13.0548 88.9226 -12.9652L77.5651 -1.60768C77.3936 -1.43755 77.1619 -1.34208 76.9204 -1.34208C76.6789 -1.34208 76.4471 -1.43755 76.2757 -1.60768L76.2389 -1.65111L76.1955 -1.68785L53.5339 -24.3494C53.4292 -24.4541 53.3516 -24.5827 53.308 -24.7242C53.2643 -24.8657 53.2559 -25.0157 53.2834 -25.1611C53.2834 -25.1611 53.2834 -25.1912 53.2834 -25.2079V-44.666C52.7413 -44.8949 52.2952 -45.3045 52.021 -45.8252C51.7469 -46.3459 51.6616 -46.9455 51.7798 -47.522C51.8979 -48.0985 52.2121 -48.6162 52.669 -48.9871C53.1258 -49.358 53.6971 -49.5592 54.2855 -49.5564H54.2755ZM46.9833 -42.0304C46.9819 -42.3308 47.0651 -42.6255 47.2234 -42.8809C47.3817 -43.1362 47.6087 -43.3419 47.8784 -43.4742C48.1481 -43.6066 48.4496 -43.6604 48.7484 -43.6294C49.0472 -43.5984 49.3313 -43.4839 49.5681 -43.299C49.8049 -43.1141 49.9848 -42.8663 50.0874 -42.5839C50.1899 -42.3016 50.2109 -41.996 50.1479 -41.7023C50.0849 -41.4085 49.9404 -41.1384 49.7311 -40.923C49.5218 -40.7075 49.256 -40.5553 48.9642 -40.4838V-20.9021C49.3439 -20.8086 49.6762 -20.5794 49.8984 -20.2576C50.1205 -19.9359 50.2172 -19.5439 50.1702 -19.1557C50.1231 -18.7676 49.9355 -18.4101 49.6429 -18.1508C49.3502 -17.8915 48.9727 -17.7483 48.5817 -17.7483C48.1907 -17.7483 47.8132 -17.8915 47.5206 -18.1508C47.2279 -18.4101 47.0404 -18.7676 46.9933 -19.1557C46.9462 -19.5439 47.0429 -19.9359 47.2651 -20.2576C47.4873 -20.5794 47.8196 -20.8086 48.1992 -20.9021V-40.4838C47.8527 -40.5683 47.5445 -40.7666 47.3241 -41.047C47.1036 -41.3274 46.9836 -41.6737 46.9833 -42.0304ZM41.2912 -36.228C41.29 -36.5283 41.3732 -36.8228 41.5315 -37.078C41.6897 -37.3331 41.9165 -37.5386 42.186 -37.671C42.4556 -37.8033 42.7569 -37.8571 43.0555 -37.8263C43.3542 -37.7955 43.6381 -37.6812 43.8749 -37.4967C44.1117 -37.3121 44.2918 -37.0646 44.3946 -36.7825C44.4974 -36.5004 44.5188 -36.1951 44.4562 -35.9014C44.3937 -35.6078 44.2498 -35.3376 44.041 -35.1219C43.8322 -34.9061 43.5669 -34.7535 43.2754 -34.6814V-26.494C43.6533 -26.4005 43.9839 -26.172 44.2048 -25.8516C44.4257 -25.5311 44.5217 -25.1409 44.4747 -24.7545C44.4276 -24.3681 44.2407 -24.0124 43.9493 -23.7543C43.658 -23.4963 43.2822 -23.3538 42.893 -23.3538C42.5037 -23.3538 42.128 -23.4963 41.8366 -23.7543C41.5452 -24.0124 41.3583 -24.3681 41.3112 -24.7545C41.2642 -25.1409 41.3602 -25.5311 41.5811 -25.8516C41.802 -26.172 42.1326 -26.4005 42.5105 -26.494V-34.6881C42.1647 -34.7722 41.8569 -34.9694 41.636 -35.2484C41.4151 -35.5274 41.2938 -35.8722 41.2912 -36.228ZM31.5839 -36.228C31.9682 -36.2215 32.3372 -36.0766 32.6233 -35.8199C32.9093 -35.5632 33.0932 -35.212 33.1411 -34.8306C33.189 -34.4493 33.0978 -34.0634 32.8841 -33.7439C32.6705 -33.4245 32.3488 -33.1927 31.9781 -33.0914V-14.0508H41.3313C41.4248 -14.4305 41.654 -14.7628 41.9758 -14.985C42.2975 -15.2072 42.6895 -15.3039 43.0776 -15.2568C43.4658 -15.2097 43.8233 -15.0221 44.0826 -14.7295C44.3419 -14.4368 44.485 -14.0594 44.485 -13.6683C44.485 -13.2773 44.3419 -12.8999 44.0826 -12.6072C43.8233 -12.3146 43.4658 -12.127 43.0776 -12.0799C42.6895 -12.0328 42.2975 -12.1295 41.9758 -12.3517C41.654 -12.5739 41.4248 -12.9062 41.3313 -13.2859H31.5839C31.5118 -13.2892 31.4421 -13.3129 31.3829 -13.3543C31.3238 -13.3957 31.2776 -13.4531 31.2498 -13.5197C31.2296 -13.566 31.2194 -13.6161 31.2198 -13.6667V-33.0914C30.8509 -33.1916 30.5303 -33.4207 30.3161 -33.7373C30.1018 -34.0538 30.0083 -34.4367 30.0523 -34.8163C30.0964 -35.196 30.2752 -35.5473 30.5562 -35.8063C30.8373 -36.0653 31.2019 -36.215 31.5839 -36.228ZM31.5839 -3.79567C31.9318 -3.794 32.2697 -3.67896 32.5464 -3.46798C32.8231 -3.25701 33.0234 -2.9616 33.1171 -2.62652H42.8646C42.8834 -2.62813 42.9024 -2.62813 42.9213 -2.62652C42.981 -2.63708 43.0423 -2.63352 43.1003 -2.61611C43.1583 -2.59871 43.2114 -2.56795 43.2554 -2.5263L54.4225 8.64414C54.4225 8.64414 54.4225 8.66418 54.4425 8.6742C54.5161 8.7465 54.5582 8.84496 54.5595 8.94812V19.6075L65.0752 9.09176L49.3985 -6.58494C49.1534 -6.43372 48.8714 -6.35282 48.5834 -6.35111C48.2258 -6.34736 47.877 -6.46253 47.592 -6.67854C47.307 -6.89454 47.1018 -7.19913 47.0087 -7.54444C46.9156 -7.88975 46.9398 -8.2562 47.0777 -8.58622C47.2155 -8.91623 47.459 -9.1911 47.7701 -9.36763C48.0811 -9.54417 48.442 -9.61236 48.796 -9.56148C49.15 -9.51061 49.477 -9.34356 49.7258 -9.08658C49.9745 -8.8296 50.1308 -8.49727 50.1701 -8.1418C50.2094 -7.78633 50.1295 -7.42787 49.943 -7.12275L65.8769 8.81116C65.9475 8.88354 65.987 8.98063 65.987 9.08174C65.987 9.18284 65.9475 9.27994 65.8769 9.35231L54.4693 20.7566C54.4307 20.7944 54.3846 20.8235 54.3339 20.8419C54.2832 20.8604 54.2291 20.8677 54.1753 20.8635C54.0743 20.8635 53.9774 20.8234 53.906 20.7519C53.8346 20.6805 53.7945 20.5837 53.7945 20.4827V9.0951L42.8245 -1.87157H33.1372C33.0735 -1.57714 32.9279 -1.30673 32.7171 -1.09155C32.5063 -0.876374 32.2389 -0.72522 31.9459 -0.655539C31.6528 -0.585858 31.346 -0.600497 31.0609 -0.697763C30.7758 -0.79503 30.5241 -0.970957 30.3347 -1.20523C30.1453 -1.4395 30.0261 -1.72255 29.9908 -2.0217C29.9555 -2.32085 30.0055 -2.62389 30.1351 -2.89583C30.2646 -3.16776 30.4685 -3.39749 30.7231 -3.55849C30.9777 -3.71949 31.2726 -3.80519 31.5739 -3.80569L31.5839 -3.79567ZM38.3717 5.75132C37.8346 6.0001 37.2275 6.05315 36.6554 5.90129C36.0834 5.74942 35.5825 5.40221 35.2395 4.91982C34.8966 4.43743 34.7332 3.85027 34.7777 3.26008C34.8223 2.66989 35.0718 2.11387 35.4833 1.68838C35.8947 1.26289 36.442 0.994738 37.0303 0.930402C37.6187 0.866065 38.211 1.00959 38.7047 1.33612C39.1983 1.66264 39.5622 2.15158 39.7332 2.7182C39.9042 3.28482 39.8716 3.89342 39.641 4.43852L47.5913 12.3888C47.908 12.2538 48.2492 12.1856 48.5934 12.1884C49.1471 12.1869 49.6864 12.3653 50.1299 12.6967C50.5735 13.0281 50.8974 13.4947 51.0529 14.0261C51.2084 14.5576 51.1871 15.1251 50.9922 15.6434C50.7972 16.1617 50.4392 16.6026 49.9721 16.8998C49.5049 17.1971 48.9538 17.3345 48.4018 17.2915C47.8497 17.2485 47.3266 17.0273 46.9111 16.6613C46.4956 16.2952 46.2102 15.8042 46.098 15.262C45.9857 14.7197 46.0525 14.1557 46.2885 13.6548L38.3717 5.75132ZM25.8717 -20.9522C26.2631 -20.955 26.6418 -20.8137 26.9357 -20.5552C27.2296 -20.2967 27.418 -19.939 27.4651 -19.5505C27.5121 -19.1619 27.4146 -18.7696 27.1909 -18.4484C26.9673 -18.1272 26.6333 -17.8995 26.2525 -17.8088V3.20924L48.7437 25.6971H69.705C69.7736 25.3104 69.9814 24.9622 70.2891 24.7183C70.5969 24.4744 70.9834 24.3517 71.3755 24.3733C71.7676 24.3949 72.1382 24.5593 72.4173 24.8356C72.6965 25.1118 72.8648 25.4807 72.8904 25.8726C72.9161 26.2644 72.7974 26.6521 72.5566 26.9624C72.3159 27.2727 71.9699 27.4841 71.584 27.5567C71.198 27.6292 70.7989 27.558 70.4619 27.3563C70.125 27.1546 69.8735 26.8365 69.7551 26.4621H48.5968C48.5444 26.4622 48.4927 26.4512 48.4449 26.4299C48.3971 26.4086 48.3544 26.3775 48.3195 26.3385C48.3003 26.3298 48.2823 26.3186 48.2661 26.3051L25.6546 3.6936C25.5901 3.64822 25.5411 3.58408 25.5143 3.50988C25.4914 3.4527 25.4833 3.39063 25.4909 3.32949V-17.8088C25.1102 -17.8995 24.7761 -18.1272 24.5525 -18.4484C24.3289 -18.7696 24.2313 -19.1619 24.2784 -19.5505C24.3254 -19.939 24.5139 -20.2967 24.8077 -20.5552C25.1016 -20.8137 25.4803 -20.955 25.8717 -20.9522ZM13.021 -18.3901C13.0178 -18.6909 13.0993 -18.9866 13.2564 -19.2431C13.4136 -19.4997 13.6398 -19.7068 13.9093 -19.8406C14.1787 -19.9744 14.4804 -20.0296 14.7798 -19.9997C15.0791 -19.9699 15.364 -19.8562 15.6017 -19.6718C15.8394 -19.4874 16.0204 -19.2397 16.1237 -18.9572C16.2271 -18.6747 16.2487 -18.3687 16.186 -18.0745C16.1234 -17.7802 15.9791 -17.5096 15.7696 -17.2936C15.5602 -17.0776 15.2941 -16.9251 15.0019 -16.8535V-9.50449C15.3816 -9.41102 15.7139 -9.18177 15.9361 -8.86003C16.1583 -8.53828 16.2549 -8.14632 16.2079 -7.75816C16.1608 -7.37 15.9732 -7.01251 15.6806 -6.75321C15.3879 -6.4939 15.0104 -6.35073 14.6194 -6.35073C14.2284 -6.35073 13.851 -6.4939 13.5583 -6.75321C13.2657 -7.01251 13.0781 -7.37 13.031 -7.75816C12.9839 -8.14632 13.0806 -8.53828 13.3028 -8.86003C13.525 -9.18177 13.8573 -9.41102 14.237 -9.50449V-16.8535C13.8918 -16.937 13.5845 -17.1337 13.3642 -17.4122C13.1438 -17.6907 13.023 -18.0349 13.021 -18.3901ZM5.33801 -8.3988C5.76034 -8.39926 6.17615 -8.29463 6.54797 -8.09434C6.91978 -7.89405 7.23592 -7.60439 7.46789 -7.25147C7.69985 -6.89855 7.84036 -6.49345 7.87675 -6.07269C7.91314 -5.65193 7.84426 -5.22873 7.67633 -4.84123L13.6056 1.10142C13.9215 0.962748 14.2627 0.891088 14.6077 0.89097C15.1586 0.890225 15.6948 1.06796 16.1362 1.39755C16.5776 1.72713 16.9003 2.19084 17.056 2.71921C17.2117 3.24759 17.1921 3.81219 17 4.32846C16.8079 4.84473 16.4538 5.28488 15.9905 5.58298C15.5273 5.88109 14.98 6.02111 14.4306 5.98208C13.8811 5.94304 13.3591 5.72705 12.9427 5.36645C12.5263 5.00585 12.2379 4.52005 12.1207 3.98181C12.0036 3.44357 12.064 2.88186 12.2928 2.38081L6.38691 -3.53845C6.04111 -3.38035 5.66428 -3.30172 5.2841 -3.30835C4.90392 -3.31498 4.53006 -3.4067 4.18998 -3.57677C3.8499 -3.74685 3.55224 -3.99094 3.31887 -4.29114C3.08551 -4.59134 2.92236 -4.94001 2.84141 -5.31153C2.76047 -5.68305 2.76379 -6.06798 2.85113 -6.43805C2.93847 -6.80812 3.1076 -7.15392 3.34611 -7.45004C3.58462 -7.74617 3.88645 -7.98511 4.22941 -8.14929C4.57237 -8.31347 4.94776 -8.39873 5.32799 -8.3988H5.33801ZM-1.81387 7.42488C-1.45703 7.4246 -1.11046 7.54438 -0.829933 7.76492C-0.549402 7.98547 -0.351212 8.29397 -0.267249 8.6408H19.909V-23.3974C19.5294 -23.4909 19.1971 -23.7201 18.9749 -24.0418C18.7527 -24.3636 18.656 -24.7556 18.7031 -25.1437C18.7502 -25.5319 18.9377 -25.8894 19.2304 -26.1487C19.523 -26.408 19.9005 -26.5511 20.2915 -26.5511C20.6825 -26.5511 21.06 -26.408 21.3526 -26.1487C21.6453 -25.8894 21.8329 -25.5319 21.8799 -25.1437C21.927 -24.7556 21.8303 -24.3636 21.6081 -24.0418C21.386 -23.7201 21.0537 -23.4909 20.674 -23.3974V8.9214C20.6855 8.95595 20.6922 8.99191 20.694 9.02829C20.6945 9.07858 20.6849 9.12846 20.666 9.17505C20.6471 9.22163 20.6191 9.26401 20.5837 9.29973C20.5483 9.33544 20.5061 9.36379 20.4597 9.38314C20.4133 9.40249 20.3635 9.41245 20.3132 9.41244H-0.267249C-0.33929 9.70309 -0.491605 9.96761 -0.706804 10.1758C-0.922004 10.384 -1.19141 10.5275 -1.48427 10.59C-1.77714 10.6524 -2.08165 10.6312 -2.36304 10.5288C-2.64443 10.4264 -2.89136 10.247 -3.07563 10.0109C-3.25991 9.77492 -3.37411 9.49184 -3.40519 9.19402C-3.43627 8.8962 -3.38298 8.59564 -3.2514 8.32666C-3.11982 8.05768 -2.91526 7.83112 -2.66107 7.67285C-2.40688 7.51457 -2.11331 7.43096 -1.81387 7.43156V7.42488ZM-3.67784 13.2673C-3.34656 13.2681 -3.02375 13.3721 -2.75434 13.5649C-2.48492 13.7577 -2.28229 14.0296 -2.17464 14.3429H13.1146C13.2425 13.9746 13.5009 13.6658 13.8409 13.4748C14.1809 13.2838 14.5791 13.2239 14.9603 13.3063C15.3414 13.3887 15.6793 13.6077 15.91 13.9221C16.1408 14.2365 16.2485 14.6244 16.2129 15.0128C16.1773 15.4011 16.0008 15.763 15.7167 16.0302C15.4326 16.2973 15.0606 16.4513 14.6708 16.463C14.281 16.4747 13.9004 16.3433 13.6008 16.0937C13.3012 15.8441 13.1033 15.4934 13.0444 15.1079H-2.09447C-2.14114 15.4099 -2.27349 15.6922 -2.47581 15.9212C-2.67812 16.1502 -2.94191 16.3163 -3.23585 16.3999C-3.52978 16.4835 -3.84152 16.4809 -4.13406 16.3926C-4.4266 16.3043 -4.68764 16.1338 -4.8862 15.9015C-5.08476 15.6693 -5.21249 15.3849 -5.25424 15.0822C-5.29598 14.7794 -5.24998 14.4711 -5.1217 14.1937C-4.99342 13.9164 -4.78824 13.6817 -4.53053 13.5175C-4.27282 13.3532 -3.9734 13.2664 -3.66782 13.2673H-3.67784ZM-5.04408 17.964C-4.52902 17.964 -4.02606 18.1202 -3.60149 18.4118C-3.17692 18.7034 -2.85065 19.1167 -2.66569 19.5974H31.7041C31.8494 19.5981 31.9923 19.6332 32.1213 19.7C32.2502 19.7668 32.3614 19.8633 32.4457 19.9816L71.265 58.8009L119.919 10.1473C119.654 9.61163 119.586 9.00024 119.726 8.4194C119.865 7.83856 120.204 7.32498 120.683 6.96789C121.162 6.61081 121.75 6.43279 122.347 6.46477C122.944 6.49675 123.51 6.7367 123.948 7.14293C124.386 7.54917 124.668 8.09601 124.744 8.68844C124.821 9.28088 124.688 9.88146 124.368 10.3858C124.048 10.8902 123.561 11.2665 122.992 11.4494C122.424 11.6322 121.809 11.61 121.255 11.3866L71.9097 60.7383C71.7383 60.9085 71.5065 61.0039 71.265 61.0039C71.0235 61.0039 70.7917 60.9085 70.6203 60.7383C70.6003 60.7183 70.5869 60.6949 70.5702 60.6749C70.5476 60.66 70.5264 60.6433 70.5067 60.6248L31.31 21.4213H-2.66903C-2.83521 21.8544 -3.11656 22.2338 -3.48269 22.5186C-3.84882 22.8034 -4.28581 22.9827 -4.74644 23.0372C-5.20707 23.0917 -5.67384 23.0193 -6.09631 22.8278C-6.51878 22.6363 -6.8809 22.333 -7.14354 21.9507C-7.40618 21.5683 -7.55936 21.1215 -7.58653 20.6585C-7.61369 20.1954 -7.51382 19.7338 -7.29769 19.3233C-7.08156 18.9129 -6.75739 18.5694 -6.36021 18.3298C-5.96302 18.0902 -5.50793 17.9637 -5.04408 17.964ZM113.411 43.0874C113.412 43.5517 113.285 44.0072 113.046 44.4049C112.806 44.8026 112.463 45.1273 112.052 45.344C111.642 45.5606 111.18 45.6611 110.716 45.6344C110.253 45.6077 109.805 45.455 109.422 45.1926C109.039 44.9303 108.735 44.5683 108.543 44.1457C108.351 43.7232 108.277 43.2562 108.331 42.795C108.385 42.3339 108.563 41.8962 108.848 41.5292C109.132 41.1621 109.511 40.8797 109.944 40.7124V34.1217C109.389 33.9087 108.926 33.508 108.635 32.9892C108.345 32.4704 108.245 31.8662 108.353 31.2815C108.461 30.6968 108.771 30.1685 109.228 29.7883C109.685 29.408 110.261 29.1998 110.856 29.1998C111.451 29.1998 112.026 29.408 112.484 29.7883C112.941 30.1685 113.25 30.6968 113.359 31.2815C113.467 31.8662 113.367 32.4704 113.077 32.9892C112.786 33.508 112.323 33.9087 111.768 34.1217V40.699C112.252 40.883 112.669 41.2101 112.962 41.6368C113.256 42.0635 113.413 42.5695 113.411 43.0874ZM50.1801 60.1471C50.1815 60.4475 50.0983 60.7423 49.94 60.9976C49.7817 61.2529 49.5548 61.4586 49.2851 61.5909C49.0154 61.7233 48.7139 61.7771 48.4151 61.7461C48.1162 61.7151 47.8322 61.6006 47.5954 61.4157C47.3586 61.2308 47.1786 60.983 47.0761 60.7006C46.9735 60.4183 46.9526 60.1127 47.0156 59.819C47.0786 59.5252 47.223 59.2551 47.4324 59.0397C47.6417 58.8242 47.9075 58.672 48.1992 58.6005V50.3061C47.8196 50.2127 47.4873 49.9834 47.2651 49.6617C47.0429 49.3399 46.9462 48.948 46.9933 48.5598C47.0404 48.1717 47.2279 47.8142 47.5206 47.5549C47.8132 47.2956 48.1907 47.1524 48.5817 47.1524C48.9727 47.1524 49.3502 47.2956 49.6429 47.5549C49.9355 47.8142 50.1231 48.1717 50.1702 48.5598C50.2172 48.948 50.1205 49.3399 49.8984 49.6617C49.6762 49.9834 49.3439 50.2127 48.9642 50.3061V58.6005C49.3105 58.6855 49.6183 58.884 49.8387 59.1643C50.059 59.4446 50.1792 59.7905 50.1801 60.1471ZM38.8226 48.7595C38.824 49.0599 38.7408 49.3547 38.5825 49.61C38.4242 49.8654 38.1973 50.071 37.9276 50.2034C37.6579 50.3357 37.3564 50.3895 37.0575 50.3585C36.7587 50.3275 36.4747 50.2131 36.2379 50.0282C36.0011 49.8433 35.8211 49.5955 35.7186 49.3131C35.616 49.0307 35.5951 48.7251 35.6581 48.4314C35.7211 48.1377 35.8655 47.8676 36.0748 47.6521C36.2842 47.4366 36.5499 47.2844 36.8417 47.2129V38.972C36.4621 38.8785 36.1298 38.6493 35.9076 38.3276C35.6854 38.0058 35.5887 37.6139 35.6358 37.2257C35.6829 36.8375 35.8704 36.48 36.1631 36.2207C36.4557 35.9614 36.8332 35.8183 37.2242 35.8183C37.6152 35.8183 37.9927 35.9614 38.2853 36.2207C38.578 36.48 38.7656 36.8375 38.8127 37.2257C38.8597 37.6139 38.763 38.0058 38.5409 38.3276C38.3187 38.6493 37.9864 38.8785 37.6067 38.972V47.2129C37.9536 47.2973 38.2622 47.4955 38.4832 47.7758C38.7042 48.0562 38.8249 48.4025 38.826 48.7595H38.8226ZM33.1773 43.0808C33.1774 43.3802 33.0933 43.6737 32.9346 43.9277C32.7759 44.1816 32.5489 44.3858 32.2797 44.517C32.0105 44.6481 31.7098 44.7009 31.412 44.6693C31.1142 44.6376 30.8313 44.5229 30.5955 44.3382C30.3598 44.1534 30.1808 43.9061 30.079 43.6245C29.9771 43.3429 29.9565 43.0383 30.0195 42.7455C30.0826 42.4527 30.2266 42.1836 30.4353 41.9688C30.644 41.754 30.9089 41.6022 31.1997 41.5308V33.2966C30.8207 33.2035 30.4889 32.9749 30.267 32.6538C30.0451 32.3328 29.9485 31.9416 29.9954 31.5542C30.0422 31.1667 30.2294 30.8099 30.5215 30.551C30.8135 30.2921 31.1903 30.1492 31.5805 30.1492C31.9708 30.1492 32.3476 30.2921 32.6396 30.551C32.9317 30.8099 33.1188 31.1667 33.1657 31.5542C33.2126 31.9416 33.1159 32.3328 32.894 32.6538C32.6721 32.9749 32.3404 33.2035 31.9613 33.2966V41.5375C32.3088 41.622 32.6178 41.8207 32.8389 42.1017C33.0599 42.3828 33.1803 42.7299 33.1806 43.0874L33.1773 43.0808ZM-6.37692 24.568C-6.03231 24.5683 -5.6971 24.6805 -5.42177 24.8877C-5.14645 25.095 -4.9459 25.386 -4.85034 25.7171H25.9151C25.9668 25.7168 26.0179 25.727 26.0655 25.7472C26.1349 25.7767 26.1941 25.8261 26.2357 25.889C26.2773 25.952 26.2994 26.0258 26.2993 26.1013V48.7729C26.2984 48.8742 26.2576 48.971 26.1856 49.0424C26.1137 49.1137 26.0165 49.1537 25.9151 49.1537C25.8834 49.1517 25.8521 49.1461 25.8216 49.137C25.7923 49.1461 25.762 49.1517 25.7314 49.1537H4.81357C4.72008 49.5343 4.49046 49.8674 4.16807 50.0902C3.84568 50.3131 3.45286 50.4101 3.0638 50.363C2.67475 50.3159 2.31641 50.128 2.05648 49.8347C1.79655 49.5414 1.65303 49.1631 1.65303 48.7712C1.65303 48.3793 1.79655 48.001 2.05648 47.7077C2.31641 47.4144 2.67475 47.2265 3.0638 47.1794C3.45286 47.1323 3.84568 47.2294 4.16807 47.4522C4.49046 47.675 4.72008 48.0081 4.81357 48.3887H25.5243V26.4687H-4.81025C-4.8679 26.766 -5.00891 27.0408 -5.21681 27.261C-5.42471 27.4812 -5.69094 27.6377 -5.98444 27.7123C-6.27793 27.7869 -6.58659 27.7765 -6.8744 27.6823C-7.16221 27.5881 -7.4173 27.414 -7.60991 27.1803C-7.80252 26.9467 -7.92471 26.663 -7.96222 26.3625C-7.99973 26.062 -7.95101 25.7571 -7.82175 25.4832C-7.6925 25.2094 -7.48803 24.9779 -7.2322 24.8159C-6.97638 24.6538 -6.67975 24.5679 -6.37692 24.568ZM0.0500925 43.1008C0.050058 43.6571 -0.13195 44.198 -0.468161 44.6412C-0.804373 45.0843 -1.27633 45.4053 -1.81201 45.5552C-2.3477 45.705 -2.9177 45.6755 -3.43505 45.4712C-3.95241 45.2668 -4.3887 44.8988 -4.67736 44.4233C-4.96603 43.9478 -5.09121 43.391 -5.03382 42.8377C-4.97643 42.2844 -4.73961 41.7651 -4.35949 41.3589C-3.97938 40.9528 -3.47684 40.6822 -2.92856 40.5884C-2.38027 40.4946 -1.81635 40.5827 -1.32283 40.8393L2.15123 37.1014C2.21823 36.9319 2.33465 36.7865 2.48537 36.684C2.63608 36.5816 2.81412 36.5268 2.99636 36.5268H12.2427C12.4558 35.9707 12.8569 35.5068 13.3763 35.2155C13.8958 34.9243 14.5009 34.8242 15.0864 34.9325C15.672 35.0409 16.2012 35.3509 16.5821 35.8087C16.963 36.2665 17.1715 36.8432 17.1715 37.4388C17.1715 38.0343 16.963 38.611 16.5821 39.0688C16.2012 39.5266 15.672 39.8366 15.0864 39.945C14.5009 40.0533 13.8958 39.9532 13.3763 39.662C12.8569 39.3707 12.4558 38.9068 12.2427 38.3507H3.48073L-0.110249 42.1989C-0.00385725 42.483 0.0504576 42.784 0.0500925 43.0874V43.1008ZM-7.32561 30.1499C-6.96705 30.1474 -6.61816 30.2661 -6.33558 30.4868C-6.053 30.7076 -5.85332 31.0173 -5.76896 31.3658H20.2464C20.3462 31.3676 20.4414 31.4085 20.5114 31.4797C20.5814 31.5509 20.6206 31.6468 20.6205 31.7466V41.5341C21.0002 41.6276 21.3325 41.8569 21.5547 42.1786C21.7769 42.5003 21.8736 42.8923 21.8265 43.2805C21.7794 43.6686 21.5918 44.0261 21.2992 44.2854C21.0065 44.5447 20.6291 44.6879 20.2381 44.6879C19.8471 44.6879 19.4696 44.5447 19.1769 44.2854C18.8843 44.0261 18.6967 43.6686 18.6496 43.2805C18.6026 42.8923 18.6992 42.5003 18.9214 42.1786C19.1436 41.8569 19.4759 41.6276 19.8556 41.5341V32.1274H-5.76896C-5.84038 32.4183 -5.99216 32.6832 -6.20695 32.8919C-6.42174 33.1005 -6.6909 33.2446 -6.98367 33.3076C-7.27644 33.3706 -7.58104 33.35 -7.86266 33.2482C-8.14429 33.1463 -8.39159 32.9673 -8.57633 32.7316C-8.76107 32.4959 -8.87581 32.213 -8.90742 31.9152C-8.93904 31.6174 -8.88627 31.3167 -8.75514 31.0475C-8.62401 30.7782 -8.4198 30.5513 -8.16584 30.3926C-7.91188 30.2339 -7.6184 30.1498 -7.31892 30.1499H-7.32561ZM-9.87102 54.5351C-9.87114 53.9601 -9.67656 53.402 -9.31896 52.9517C-8.96137 52.5014 -8.46183 52.1854 -7.90172 52.0552C-7.34162 51.9251 -6.75394 51.9884 -6.23443 52.2349C-5.71492 52.4814 -5.29418 52.8966 -5.04074 53.4128H17.9482C18.2098 52.8781 18.6503 52.4519 19.1932 52.208C19.7362 51.9641 20.3474 51.918 20.9208 52.0775C21.4942 52.2371 21.9937 52.5923 22.3327 53.0816C22.6716 53.5708 22.8286 54.1633 22.7765 54.7562C22.7244 55.3491 22.4664 55.9051 22.0473 56.3277C21.6282 56.7504 21.0743 57.013 20.4819 57.07C19.8894 57.1271 19.2957 56.975 18.8036 56.6401C18.3115 56.3052 17.9522 55.8087 17.7878 55.2366H-4.87706C-5.03204 55.8434 -5.40528 56.3718 -5.9254 56.7207C-6.44552 57.0696 -7.076 57.2144 -7.69623 57.1276C-8.31647 57.0408 -8.88292 56.7283 -9.28724 56.25C-9.69155 55.7717 -9.90535 55.1612 -9.88773 54.5351H-9.87102ZM-5.12759 67.3725C-5.42802 67.3739 -5.72276 67.2907 -5.97811 67.1324C-6.23345 66.9741 -6.43907 66.7471 -6.57144 66.4774C-6.70381 66.2077 -6.75758 65.9062 -6.7266 65.6074C-6.69562 65.3086 -6.58113 65.0245 -6.39625 64.7877C-6.21136 64.5509 -5.96355 64.3709 -5.68116 64.2684C-5.39877 64.1659 -5.09322 64.1449 -4.79948 64.2079C-4.50574 64.2709 -4.23566 64.4154 -4.02017 64.6247C-3.80468 64.834 -3.65247 65.0998 -3.58097 65.3916H30.0373C30.1307 65.0119 30.36 64.6796 30.6817 64.4574C31.0035 64.2352 31.3954 64.1386 31.7836 64.1856C32.1717 64.2327 32.5292 64.4203 32.7885 64.7129C33.0478 65.0056 33.191 65.3831 33.191 65.7741C33.191 66.1651 33.0478 66.5425 32.7885 66.8352C32.5292 67.1278 32.1717 67.3154 31.7836 67.3625C31.3954 67.4096 31.0035 67.3129 30.6817 67.0907C30.36 66.8685 30.1307 66.5362 30.0373 66.1565H-3.57763C-3.66216 66.504 -3.86086 66.813 -4.14189 67.034C-4.42292 67.2551 -4.77003 67.3755 -5.12759 67.3758V67.3725ZM27.4885 71.381C27.4878 71.7708 27.3446 72.1468 27.0858 72.4383C26.827 72.7298 26.4706 72.9165 26.0836 72.9634C25.6966 73.0102 25.3059 72.9139 24.9851 72.6925C24.6642 72.4712 24.4354 72.1402 24.3418 71.7618H4.81357C4.72007 72.1433 4.49007 72.4773 4.16704 72.7008C3.844 72.9242 3.45032 73.0216 3.06037 72.9745C2.67042 72.9274 2.31123 72.7391 2.05068 72.4452C1.79012 72.1513 1.64625 71.7721 1.64625 71.3793C1.64625 70.9865 1.79012 70.6074 2.05068 70.3135C2.31123 70.0195 2.67042 69.8312 3.06037 69.7842C3.45032 69.7371 3.844 69.8344 4.16704 70.0579C4.49007 70.2813 4.72007 70.6153 4.81357 70.9968H24.3451C24.4389 70.6182 24.6679 70.287 24.9891 70.0656C25.3103 69.8443 25.7014 69.7482 26.0886 69.7955C26.4758 69.8428 26.8323 70.0301 27.0908 70.3222C27.3493 70.6143 27.492 70.9909 27.4918 71.381H27.4885ZM0.668075 84.3085C0.367253 84.3097 0.0721774 84.2261 -0.183298 84.0673C-0.438773 83.9085 -0.644299 83.6808 -0.776293 83.4105C-0.908288 83.1402 -0.961405 82.8381 -0.92955 82.539C-0.897694 82.2399 -0.782158 81.9558 -0.596196 81.7193C-0.410234 81.4829 -0.161379 81.3036 0.121816 81.2021C0.405012 81.1007 0.711075 81.0811 1.00489 81.1457C1.29871 81.2102 1.56837 81.3563 1.78295 81.5671C1.99753 81.7779 2.14833 82.045 2.21804 82.3376H25.8316L42.4036 65.7657L32.2787 55.6341C32.0628 55.7416 31.825 55.7976 31.5839 55.7978C31.2671 55.7985 30.9573 55.7051 30.6937 55.5296C30.43 55.354 30.2244 55.1041 30.1029 54.8116C29.9814 54.5191 29.9494 54.1971 30.0111 53.8864C30.0727 53.5757 30.2251 53.2903 30.4491 53.0663C30.6731 52.8424 30.9585 52.6899 31.2692 52.6283C31.5799 52.5666 31.9019 52.5986 32.1944 52.7201C32.4869 52.8416 32.7368 53.0472 32.9123 53.3109C33.0879 53.5745 33.1813 53.8843 33.1806 54.2011C33.1809 54.5408 33.0706 54.8714 32.8666 55.1431L43.1986 65.4718C43.2632 65.5379 43.3012 65.6255 43.3056 65.7178C43.3099 65.8102 43.2801 65.9009 43.222 65.9728C43.206 66.0237 43.1772 66.0697 43.1385 66.1064L26.2726 82.9723C26.2301 83.0162 26.1772 83.0487 26.1188 83.0668C26.0604 83.0849 25.9984 83.088 25.9385 83.0759C25.903 83.0884 25.8659 83.0963 25.8283 83.0993H2.21136C2.12572 83.444 1.92734 83.7503 1.64772 83.9694C1.36811 84.1884 1.0233 84.3078 0.668075 84.3085ZM6.31008 88.601C6.31091 88.0153 6.51365 87.4479 6.88413 86.9943C7.25461 86.5407 7.77015 86.2288 8.34384 86.1111C8.91753 85.9934 9.51427 86.0771 10.0334 86.3481C10.5526 86.6191 10.9624 87.0608 11.1938 87.5988H31.0795L53.2867 65.3916V56.5762C52.7309 56.3627 52.2674 55.9615 51.9765 55.442C51.6856 54.9225 51.5858 54.3176 51.6943 53.7322C51.8028 53.1468 52.1129 52.6178 52.5706 52.2371C53.0284 51.8564 53.605 51.648 54.2003 51.648C54.7957 51.648 55.3723 51.8564 55.8301 52.2371C56.2878 52.6178 56.5979 53.1468 56.7064 53.7322C56.8149 54.3176 56.7151 54.9225 56.4242 55.442C56.1333 55.9615 55.6698 56.3627 55.114 56.5762V65.6889C55.114 65.7089 55.114 65.729 55.114 65.7523C55.1167 65.876 55.0944 65.9988 55.0485 66.1136C55.0026 66.2284 54.9339 66.3328 54.8467 66.4204L32.0783 89.1856C31.9675 89.2974 31.8292 89.3782 31.6774 89.4198C31.5256 89.4614 31.3654 89.4624 31.2131 89.4227H11.2673C11.0762 89.9969 10.6867 90.4843 10.1688 90.7973C9.65086 91.1103 9.03833 91.2286 8.44109 91.1309C7.84385 91.0331 7.30097 90.7258 6.90983 90.264C6.51868 89.8022 6.30487 89.2162 6.30674 88.611L6.31008 88.601ZM38.8093 94.0693C38.813 94.4261 38.6984 94.774 38.4833 95.0587C38.2683 95.3434 37.9649 95.5488 37.6207 95.6428C37.2765 95.7367 36.9108 95.7139 36.5809 95.5779C36.2511 95.4419 35.9756 95.2004 35.7976 94.8911C35.6196 94.5819 35.5491 94.2224 35.5972 93.8688C35.6453 93.5153 35.8092 93.1876 36.0633 92.9372C36.3174 92.6867 36.6474 92.5275 37.0016 92.4846C37.3558 92.4416 37.7143 92.5172 38.0209 92.6997L47.1303 83.587C46.9355 83.2898 46.8455 82.9361 46.8744 82.5819C46.9033 82.2278 47.0495 81.8934 47.2898 81.6317C47.5302 81.37 47.851 81.1959 48.2014 81.1371C48.5518 81.0782 48.9118 81.138 49.2245 81.3068C49.5372 81.4756 49.7846 81.7439 49.9276 82.0692C50.0705 82.3945 50.1009 82.7582 50.0139 83.1027C49.9269 83.4472 49.7275 83.7529 49.4472 83.9713C49.1669 84.1897 48.8218 84.3084 48.4665 84.3085C48.1971 84.3076 47.9326 84.2374 47.6982 84.1047L38.5687 93.2342C38.7252 93.4847 38.8085 93.7739 38.8093 94.0693ZM26.0488 117.977C25.8327 117.987 25.6169 117.953 25.4144 117.877C25.2118 117.801 25.0268 117.685 24.8704 117.535C24.714 117.386 24.5895 117.206 24.5045 117.008C24.4194 116.809 24.3756 116.595 24.3756 116.378C24.3756 116.162 24.4194 115.948 24.5045 115.749C24.5895 115.55 24.714 115.371 24.8704 115.221C25.0268 115.072 25.2118 114.956 25.4144 114.88C25.6169 114.804 25.8327 114.77 26.0488 114.78C26.374 114.78 26.6913 114.88 26.9574 115.067L30.1575 111.867C30.0185 111.63 29.9447 111.36 29.9437 111.085C29.9415 110.73 30.0581 110.383 30.2749 110.101C30.4917 109.819 30.7965 109.617 31.1409 109.527C31.4854 109.438 31.8499 109.465 32.1768 109.606C32.5036 109.747 32.7743 109.993 32.9458 110.305C33.1173 110.616 33.1799 110.977 33.1238 111.328C33.0677 111.679 32.896 112.002 32.6358 112.245C32.3757 112.488 32.042 112.637 31.6875 112.669C31.333 112.701 30.978 112.614 30.6786 112.422L27.4584 115.639C27.5803 115.864 27.6445 116.117 27.6455 116.373C27.6464 116.584 27.6057 116.792 27.5259 116.987C27.446 117.181 27.3286 117.358 27.1802 117.507C27.0318 117.656 26.8555 117.774 26.6614 117.855C26.4672 117.935 26.259 117.977 26.0488 117.977ZM32.4925 123.041C32.2403 123.043 31.9912 122.985 31.7656 122.873C31.54 122.76 31.3442 122.596 31.1941 122.393C31.0441 122.19 30.9441 121.955 30.9023 121.706C30.8605 121.458 30.878 121.202 30.9535 120.962C31.029 120.721 31.1603 120.502 31.3367 120.322C31.5131 120.141 31.7296 120.005 31.9686 119.925C32.2075 119.844 32.4621 119.821 32.7117 119.858C32.9612 119.894 33.1986 119.989 33.4044 120.135L42.4437 111.085L37.1891 105.841H16.5419C16.4484 106.221 16.2191 106.553 15.8974 106.775C15.5757 106.997 15.1837 107.094 14.7955 107.047C14.4074 107 14.0499 106.812 13.7906 106.52C13.5313 106.227 13.3881 105.85 13.3881 105.459C13.3881 105.068 13.5313 104.69 13.7906 104.397C14.0499 104.105 14.4074 103.917 14.7955 103.87C15.1837 103.823 15.5757 103.92 15.8974 104.142C16.2191 104.364 16.4484 104.696 16.5419 105.076H37.3461C37.4023 105.077 37.4575 105.09 37.5078 105.115C37.5581 105.14 37.6022 105.175 37.6368 105.22L37.6768 105.246L43.1919 110.751L43.252 110.792C43.3226 110.864 43.3622 110.961 43.3622 111.062C43.3622 111.163 43.3226 111.26 43.252 111.333L33.8988 120.686C34.0295 120.929 34.0946 121.202 34.0877 121.477C34.0808 121.753 34.0021 122.022 33.8595 122.258C33.7168 122.494 33.5151 122.689 33.2742 122.823C33.0333 122.958 32.7616 123.027 32.4858 123.024L32.4925 123.041ZM69.1004 138.975C68.8077 138.975 68.5207 138.894 68.2708 138.742C68.0208 138.59 67.8175 138.372 67.683 138.112C67.5486 137.852 67.4882 137.56 67.5084 137.268C67.5286 136.976 67.6286 136.695 67.7976 136.456L60.7593 129.418C60.4625 129.613 60.109 129.704 59.7547 129.676C59.4004 129.648 59.0656 129.503 58.8033 129.263C58.541 129.023 58.3662 128.703 58.3066 128.352C58.2471 128.002 58.3061 127.642 58.4743 127.329C58.6426 127.016 58.9105 126.768 59.2356 126.624C59.5607 126.48 59.9244 126.449 60.2692 126.536C60.6139 126.622 60.9199 126.821 61.1388 127.101C61.3577 127.381 61.4769 127.726 61.4775 128.082C61.4762 128.349 61.406 128.611 61.2737 128.843L68.3889 135.958C68.6106 135.842 68.8568 135.78 69.1071 135.778C69.3231 135.768 69.5389 135.802 69.7415 135.878C69.944 135.954 70.1291 136.07 70.2854 136.219C70.4418 136.369 70.5663 136.548 70.6514 136.747C70.7364 136.946 70.7802 137.16 70.7802 137.376C70.7802 137.593 70.7364 137.807 70.6514 138.006C70.5663 138.204 70.4418 138.384 70.2854 138.533C70.1291 138.683 69.944 138.799 69.7415 138.875C69.5389 138.951 69.3231 138.985 69.1071 138.975H69.1004ZM76.9003 136.329C76.2249 136.328 75.5775 136.059 75.1003 135.582C74.623 135.104 74.3549 134.456 74.3549 133.78C74.3554 133.4 74.4422 133.024 74.6088 132.681L66.6151 124.688C66.1172 124.926 65.5554 124.996 65.0142 124.887C64.4731 124.778 63.982 124.497 63.615 124.084C63.2479 123.672 63.0248 123.152 62.9793 122.602C62.9338 122.052 63.0684 121.502 63.3627 121.035C63.657 120.568 64.0952 120.209 64.6111 120.013C65.127 119.817 65.6927 119.793 66.223 119.947C66.7532 120.1 67.2193 120.421 67.5509 120.863C67.8825 121.304 68.0618 121.841 68.0615 122.393C68.0609 122.725 67.9963 123.054 67.8711 123.362L75.9316 131.425C76.28 131.281 76.6561 131.216 77.0327 131.235C77.4094 131.254 77.7772 131.356 78.1096 131.534C78.442 131.712 78.7308 131.961 78.9551 132.264C79.1794 132.567 79.3337 132.917 79.4068 133.287C79.4798 133.656 79.4699 134.038 79.3777 134.404C79.2855 134.769 79.1133 135.11 78.8736 135.401C78.6338 135.692 78.3325 135.926 77.9912 136.087C77.65 136.247 77.2774 136.33 76.9003 136.329ZM82.5791 129.685C82.2939 129.685 82.014 129.608 81.7688 129.462C81.5236 129.316 81.3222 129.107 81.1855 128.857C81.0489 128.606 80.9821 128.324 80.9922 128.039C81.0023 127.754 81.0889 127.477 81.2429 127.237L72.0333 118.034C71.7952 118.173 71.5243 118.247 71.2483 118.247C70.9317 118.247 70.6222 118.153 70.359 117.978C70.0958 117.802 69.8907 117.551 69.7697 117.259C69.6487 116.966 69.6172 116.644 69.6792 116.334C69.7412 116.023 69.894 115.738 70.1181 115.515C70.3422 115.291 70.6276 115.139 70.9382 115.078C71.2488 115.016 71.5706 115.048 71.8629 115.17C72.1553 115.292 72.4049 115.497 72.5803 115.761C72.7558 116.024 72.849 116.334 72.8484 116.651C72.8477 116.956 72.7583 117.254 72.5912 117.509L81.7907 126.709C82.0316 126.566 82.3059 126.49 82.5858 126.488C82.8018 126.478 83.0176 126.512 83.2202 126.588C83.4227 126.664 83.6078 126.78 83.7641 126.93C83.9205 127.079 84.045 127.259 84.13 127.458C84.2151 127.656 84.2589 127.87 84.2589 128.087C84.2589 128.303 84.2151 128.517 84.13 128.716C84.045 128.915 83.9205 129.094 83.7641 129.244C83.6078 129.393 83.4227 129.509 83.2202 129.585C83.0176 129.661 82.8018 129.695 82.5858 129.685H82.5791ZM88.3213 141.818C87.7221 141.818 87.142 141.606 86.6833 141.221C86.2246 140.835 85.9167 140.3 85.8137 139.71C85.7107 139.119 85.8193 138.512 86.1204 137.993C86.4214 137.475 86.8956 137.08 87.4595 136.877V122.847L71.3084 106.696L49.1914 128.813C49.4373 129.359 49.4844 129.973 49.3244 130.549C49.1645 131.126 48.8076 131.628 48.3159 131.969C47.8241 132.309 47.2285 132.467 46.6327 132.414C46.0368 132.361 45.4783 132.101 45.0542 131.679C44.6301 131.257 44.3672 130.7 44.3112 130.104C44.2553 129.509 44.4098 128.912 44.7479 128.419C45.086 127.925 45.5863 127.566 46.1619 127.403C46.7375 127.24 47.352 127.284 47.8986 127.527L70.6637 104.759C70.8352 104.589 71.0669 104.493 71.3084 104.493C71.55 104.493 71.7817 104.589 71.9531 104.759L89.0128 121.815C89.0992 121.903 89.1671 122.008 89.2125 122.122C89.2578 122.237 89.2796 122.36 89.2767 122.483C89.2785 122.514 89.2785 122.545 89.2767 122.577V136.914C89.8235 137.136 90.2762 137.541 90.5572 138.06C90.8383 138.579 90.9302 139.18 90.8174 139.759C90.7045 140.338 90.3938 140.86 89.9385 141.236C89.4832 141.611 88.9115 141.817 88.3213 141.818ZM94.1838 116.43H115.075C115.132 116.043 115.328 115.691 115.627 115.439C115.926 115.186 116.307 115.053 116.697 115.062C117.088 115.072 117.462 115.224 117.748 115.491C118.035 115.757 118.213 116.119 118.251 116.508C118.288 116.897 118.182 117.287 117.952 117.603C117.722 117.919 117.384 118.14 117.003 118.224C116.621 118.309 116.221 118.25 115.88 118.06C115.538 117.869 115.278 117.561 115.148 117.192H94.0134C93.956 117.191 93.8994 117.178 93.8479 117.152C93.7965 117.127 93.7514 117.09 93.7161 117.045L83.4743 106.8C83.1422 107.029 82.7376 107.128 82.3371 107.079C81.9367 107.029 81.5684 106.834 81.3021 106.531C81.0358 106.228 80.89 105.838 80.8924 105.434C80.8948 105.031 81.0452 104.642 81.3151 104.342C81.585 104.043 81.9556 103.852 82.3566 103.807C82.7576 103.763 83.161 103.867 83.4904 104.1C83.8197 104.333 84.0521 104.679 84.1433 105.072C84.2346 105.465 84.1784 105.878 83.9854 106.232L94.1838 116.43ZM97.9217 111.035C97.922 110.639 98.0698 110.257 98.3365 109.963C98.6031 109.669 98.9694 109.486 99.3641 109.447C99.7588 109.409 100.154 109.519 100.472 109.756C100.79 109.992 101.009 110.339 101.085 110.728H109.356C109.428 110.341 109.639 109.994 109.95 109.752C110.26 109.51 110.648 109.39 111.041 109.415C111.434 109.44 111.804 109.608 112.081 109.887C112.359 110.166 112.524 110.538 112.547 110.931C112.569 111.324 112.447 111.711 112.203 112.02C111.959 112.329 111.61 112.538 111.222 112.607C110.835 112.676 110.435 112.601 110.1 112.396C109.764 112.191 109.515 111.869 109.4 111.493H101.048C100.939 111.86 100.701 112.175 100.378 112.38C100.055 112.586 99.6692 112.669 99.2906 112.613C98.9119 112.557 98.5659 112.367 98.3158 112.078C98.0657 111.788 97.9282 111.418 97.9284 111.035H97.9217ZM95.5233 138.988C95.5242 139.288 95.4412 139.581 95.2836 139.836C95.126 140.09 94.9003 140.295 94.6319 140.428C94.3636 140.56 94.0635 140.615 93.7656 140.585C93.4678 140.556 93.1842 140.443 92.947 140.261C92.7099 140.078 92.5287 139.833 92.4241 139.552C92.3195 139.272 92.2956 138.968 92.3552 138.675C92.4148 138.381 92.5554 138.111 92.7611 137.893C92.9669 137.676 93.2295 137.521 93.519 137.445V129.632C93.1412 129.538 92.8106 129.31 92.5897 128.989C92.3688 128.669 92.2728 128.279 92.3198 127.892C92.3669 127.506 92.5537 127.15 92.8451 126.892C93.1365 126.634 93.5123 126.491 93.9015 126.491C94.2908 126.491 94.6665 126.634 94.9579 126.892C95.2493 127.15 95.4362 127.506 95.4832 127.892C95.5303 128.279 95.4343 128.669 95.2134 128.989C94.9924 129.31 94.6619 129.538 94.284 129.632V137.418C94.6365 137.499 94.9513 137.696 95.1765 137.979C95.4017 138.262 95.524 138.613 95.5233 138.975V138.988ZM99.5318 124.003C99.2322 124.004 98.9384 123.92 98.6841 123.762C98.4297 123.604 98.225 123.377 98.0934 123.108C97.9618 122.838 97.9085 122.538 97.9398 122.24C97.971 121.942 98.0855 121.659 98.2701 121.423C98.4546 121.187 98.7019 121.007 98.9836 120.905C99.2653 120.803 99.57 120.782 99.8629 120.845C100.156 120.908 100.425 121.052 100.64 121.261C100.855 121.469 101.007 121.734 101.078 122.025H120.76C120.854 121.647 121.083 121.315 121.404 121.094C121.725 120.872 122.116 120.776 122.503 120.823C122.891 120.87 123.247 121.057 123.506 121.349C123.765 121.641 123.907 122.018 123.907 122.408C123.907 122.798 123.765 123.175 123.506 123.467C123.247 123.759 122.891 123.946 122.503 123.993C122.116 124.04 121.725 123.944 121.404 123.722C121.083 123.501 120.854 123.169 120.76 122.79H101.065C100.978 123.134 100.778 123.439 100.498 123.656C100.218 123.873 99.8731 123.991 99.5185 123.99L99.5318 124.003ZM121.766 135.842C121.335 135.842 120.912 135.734 120.535 135.526C120.158 135.318 119.84 135.018 119.61 134.654C119.381 134.29 119.248 133.873 119.224 133.444C119.199 133.014 119.284 132.585 119.471 132.197L116.288 129.014H106.216V135.447C106.771 135.66 107.234 136.061 107.525 136.58C107.815 137.099 107.915 137.703 107.807 138.288C107.699 138.872 107.389 139.401 106.932 139.781C106.475 140.161 105.899 140.369 105.304 140.369C104.709 140.369 104.134 140.161 103.676 139.781C103.219 139.401 102.91 138.872 102.801 138.288C102.693 137.703 102.793 137.099 103.083 136.58C103.374 136.061 103.837 135.66 104.392 135.447V128.098C104.392 127.979 104.416 127.86 104.462 127.749C104.507 127.639 104.575 127.538 104.659 127.454C104.744 127.369 104.845 127.302 104.955 127.256C105.066 127.21 105.184 127.186 105.304 127.186H116.662C116.796 127.187 116.929 127.217 117.05 127.274C117.171 127.332 117.278 127.416 117.363 127.52L120.78 130.938C121.128 130.795 121.503 130.731 121.878 130.751C122.253 130.77 122.62 130.873 122.951 131.05C123.282 131.228 123.569 131.477 123.793 131.779C124.016 132.081 124.17 132.429 124.243 132.797C124.316 133.166 124.307 133.546 124.216 133.911C124.124 134.275 123.954 134.615 123.715 134.906C123.477 135.196 123.178 135.431 122.839 135.592C122.499 135.753 122.128 135.837 121.752 135.838L121.766 135.842ZM137.349 128.65C136.924 128.651 136.506 128.546 136.133 128.344C135.759 128.142 135.441 127.851 135.209 127.495C134.977 127.14 134.837 126.732 134.802 126.309C134.768 125.886 134.839 125.46 135.011 125.072L110.545 100.597H79.3255C79.144 101.164 78.7697 101.649 78.2675 101.969C77.7653 102.289 77.167 102.423 76.5764 102.348C75.9858 102.273 75.4401 101.993 75.034 101.558C74.628 101.122 74.3872 100.558 74.3534 99.9639C74.3197 99.3695 74.4951 98.782 74.8493 98.3034C75.2034 97.8248 75.714 97.4852 76.2923 97.3437C76.8706 97.2022 77.4803 97.2676 78.0154 97.5286C78.5505 97.7896 78.9774 98.2298 79.2219 98.7726H110.986C111.151 98.7729 111.313 98.8182 111.454 98.9035C111.596 98.9889 111.711 99.1111 111.788 99.257L136.297 123.779C136.623 123.631 136.977 123.555 137.336 123.555C137.678 123.543 138.019 123.6 138.339 123.722C138.659 123.845 138.951 124.03 139.197 124.268C139.444 124.506 139.64 124.791 139.774 125.106C139.908 125.421 139.977 125.76 139.977 126.102C139.977 126.445 139.908 126.784 139.774 127.099C139.64 127.414 139.444 127.699 139.197 127.937C138.951 128.175 138.659 128.36 138.339 128.483C138.019 128.605 137.678 128.662 137.336 128.65H137.349ZM132.712 109.749C132.959 109.595 133.244 109.513 133.534 109.512C133.851 109.511 134.161 109.605 134.424 109.78C134.688 109.956 134.893 110.205 135.015 110.498C135.136 110.79 135.169 111.112 135.107 111.422C135.046 111.733 134.894 112.018 134.67 112.242C134.447 112.467 134.161 112.619 133.851 112.681C133.54 112.743 133.219 112.712 132.926 112.591C132.633 112.47 132.383 112.265 132.207 112.002C132.031 111.738 131.937 111.429 131.937 111.112C131.938 110.822 132.019 110.537 132.171 110.29L117.433 95.5491C117.095 95.7558 116.692 95.8313 116.302 95.7612C115.912 95.6911 115.561 95.4803 115.316 95.1688C115.07 94.8572 114.948 94.4665 114.971 94.0707C114.995 93.6749 115.163 93.3014 115.443 93.021C115.723 92.7406 116.097 92.5728 116.493 92.5493C116.889 92.5259 117.279 92.6484 117.591 92.8936C117.902 93.1389 118.113 93.4899 118.183 93.8802C118.253 94.2705 118.178 94.6729 117.971 95.0113L132.712 109.749ZM143.923 123.091C143.631 123.091 143.345 123.012 143.095 122.861C142.845 122.71 142.641 122.493 142.506 122.235C142.371 121.976 142.309 121.685 142.327 121.394C142.346 121.103 142.443 120.822 142.61 120.582L140.061 118.034C139.823 118.173 139.552 118.246 139.276 118.247C138.96 118.248 138.65 118.155 138.386 117.979C138.123 117.804 137.917 117.554 137.795 117.261C137.674 116.969 137.642 116.647 137.704 116.336C137.765 116.025 137.918 115.74 138.142 115.516C138.366 115.292 138.651 115.139 138.962 115.078C139.272 115.016 139.594 115.048 139.887 115.17C140.179 115.291 140.429 115.497 140.605 115.76C140.78 116.024 140.874 116.334 140.873 116.651C140.874 116.955 140.785 117.254 140.619 117.509L143.191 120.081C143.416 119.96 143.668 119.896 143.923 119.894C144.334 119.913 144.722 120.09 145.007 120.387C145.291 120.685 145.45 121.081 145.45 121.493C145.45 121.904 145.291 122.3 145.007 122.598C144.722 122.896 144.334 123.072 143.923 123.091ZM150.27 118.08C149.986 118.082 149.707 118.008 149.462 117.866C149.216 117.724 149.013 117.519 148.874 117.272C148.734 117.025 148.664 116.745 148.669 116.461C148.674 116.177 148.755 115.9 148.904 115.659L122.05 88.8047H77.1342L40.7233 125.216C40.8504 125.446 40.9182 125.704 40.9204 125.967C40.9182 126.324 40.7969 126.669 40.5758 126.949C40.3547 127.229 40.0465 127.427 39.7001 127.512C39.3537 127.596 38.9889 127.563 38.6637 127.416C38.3385 127.27 38.0715 127.019 37.9051 126.704C37.7388 126.388 37.6825 126.026 37.7453 125.675C37.8081 125.324 37.9864 125.004 38.2519 124.766C38.5173 124.528 38.8547 124.385 39.2105 124.361C39.5663 124.336 39.92 124.431 40.2156 124.631L76.6999 88.1433C76.7386 88.1057 76.7847 88.0767 76.8354 88.0583C76.8861 88.0399 76.9401 88.0324 76.9939 88.0364C77.0106 88.0364 77.0239 88.0364 77.0406 88.0364H122.233C122.293 88.038 122.351 88.0533 122.403 88.0811C122.455 88.1089 122.5 88.1485 122.534 88.1968L149.451 115.094C149.662 114.967 149.9 114.89 150.145 114.869C150.391 114.849 150.638 114.885 150.867 114.976C151.096 115.067 151.3 115.209 151.465 115.393C151.63 115.576 151.75 115.795 151.816 116.032C151.882 116.269 151.892 116.519 151.846 116.761C151.8 117.003 151.698 117.23 151.549 117.427C151.4 117.623 151.207 117.782 150.987 117.891C150.766 118 150.523 118.057 150.277 118.057L150.27 118.08ZM75.3036 76.9796C75.3029 76.6628 75.3963 76.353 75.5719 76.0894C75.7474 75.8257 75.9973 75.6201 76.2898 75.4986C76.5823 75.3771 76.9043 75.3451 77.215 75.4067C77.5257 75.4684 77.8111 75.6208 78.0351 75.8448C78.2591 76.0688 78.4115 76.3542 78.4732 76.6649C78.5348 76.9756 78.5028 77.2976 78.3813 77.5901C78.2598 77.8826 78.0542 78.1325 77.7905 78.308C77.5269 78.4836 77.2171 78.577 76.9003 78.5763C76.6437 78.5753 76.3913 78.5111 76.1654 78.3892L49.8594 104.692C49.9913 104.925 50.0614 105.189 50.0632 105.457C50.0639 105.774 49.9705 106.083 49.7949 106.347C49.6194 106.611 49.3695 106.816 49.077 106.938C48.7845 107.059 48.4625 107.091 48.1518 107.03C47.8411 106.968 47.5557 106.816 47.3317 106.592C47.1077 106.368 46.9553 106.082 46.8937 105.772C46.832 105.461 46.864 105.139 46.9855 104.846C47.107 104.554 47.3126 104.304 47.5763 104.128C47.8399 103.953 48.1497 103.859 48.4665 103.86C48.7805 103.859 49.0876 103.952 49.3484 104.127L75.5875 77.8848C75.403 77.619 75.3039 77.3032 75.3036 76.9796ZM97.9986 65.4083C98.0639 65.022 98.2684 64.6729 98.5734 64.4271C98.8785 64.1812 99.263 64.0556 99.6544 64.0738C100.046 64.0921 100.417 64.2531 100.698 64.5263C100.979 64.7995 101.15 65.1661 101.179 65.5568C101.208 65.9475 101.093 66.3353 100.855 66.647C100.618 66.9587 100.274 67.1727 99.8901 67.2486C99.5057 67.3244 99.1068 67.2569 98.7688 67.0588C98.4308 66.8607 98.177 66.5457 98.0554 66.1732H88.7656V76.8627H109.369C109.437 76.4748 109.645 76.1254 109.953 75.8804C110.262 75.6354 110.649 75.5118 111.042 75.533C111.435 75.5543 111.807 75.7188 112.087 75.9956C112.367 76.2724 112.536 76.6422 112.562 77.0351C112.588 77.428 112.469 77.8167 112.227 78.1278C111.986 78.4389 111.639 78.6507 111.252 78.7233C110.865 78.7959 110.465 78.7241 110.127 78.5216C109.79 78.3191 109.538 77.9998 109.42 77.6243H88.3748C88.2734 77.6243 88.1763 77.5843 88.1043 77.5129C88.0324 77.4416 87.9915 77.3448 87.9906 77.2435V65.7891C87.9906 65.6881 88.0307 65.5912 88.1021 65.5198C88.1736 65.4484 88.2704 65.4083 88.3714 65.4083H97.9986ZM91.4179 60.1304C91.4167 59.5348 91.6244 58.9577 92.0048 58.4995C92.3852 58.0412 92.9142 57.7309 93.4998 57.6224C94.0853 57.514 94.6904 57.6143 95.2097 57.9059C95.729 58.1975 96.1295 58.662 96.3417 59.2184H105.424C105.578 59.2188 105.729 59.2579 105.863 59.3321C105.997 59.4062 106.111 59.513 106.193 59.6427L117.026 70.4757C117.137 70.5867 117.216 70.725 117.256 70.8766C117.322 71.0154 117.351 71.1686 117.342 71.3218C117.332 71.475 117.283 71.6233 117.2 71.7526C117.117 71.8818 117.003 71.9879 116.868 72.0608C116.733 72.1338 116.581 72.1711 116.428 72.1693H96.4119C96.2451 72.7406 95.8837 73.2354 95.3903 73.5682C94.8969 73.9009 94.3027 74.0505 93.7106 73.991C93.1185 73.9316 92.5659 73.6668 92.1485 73.2426C91.7311 72.8184 91.4753 72.2616 91.4255 71.6686C91.3756 71.0756 91.5348 70.4839 91.8755 69.9959C92.2161 69.508 92.7168 69.1547 93.2906 68.9972C93.8645 68.8396 94.4754 68.8879 95.0174 69.1335C95.5594 69.3792 95.9984 69.8068 96.2582 70.3421H114.313L105.014 61.0423H96.3284C96.1162 61.5988 95.7156 62.0633 95.1963 62.3549C94.6771 62.6465 94.072 62.7468 93.4864 62.6383C92.9008 62.5299 92.3718 62.2195 91.9914 61.7613C91.611 61.303 91.4033 60.7259 91.4045 60.1304H91.4179ZM150.564 106.99C150.354 106.991 150.145 106.949 149.951 106.869C149.757 106.789 149.58 106.671 149.431 106.522C149.283 106.374 149.165 106.197 149.085 106.003C149.004 105.809 148.963 105.6 148.964 105.39C148.964 105.08 149.055 104.776 149.228 104.518L127.812 83.0926H95.3864C95.2929 83.4741 95.0629 83.8081 94.7398 84.0315C94.4168 84.255 94.0231 84.3524 93.6332 84.3053C93.2432 84.2582 92.884 84.0699 92.6235 83.776C92.3629 83.4821 92.219 83.1029 92.219 82.7101C92.219 82.3173 92.3629 81.9381 92.6235 81.6442C92.884 81.3503 93.2432 81.162 93.6332 81.1149C94.0231 81.0678 94.4168 81.1652 94.7398 81.3887C95.0629 81.6121 95.2929 81.9461 95.3864 82.3276H127.962C128.014 82.3267 128.065 82.3366 128.112 82.3568C128.159 82.3769 128.201 82.4068 128.236 82.4445C128.249 82.4516 128.261 82.4594 128.273 82.4679L149.806 104C150.041 103.866 150.306 103.795 150.577 103.793C150.988 103.812 151.377 103.989 151.661 104.286C151.945 104.584 152.104 104.98 152.104 105.392C152.104 105.803 151.945 106.199 151.661 106.497C151.377 106.795 150.988 106.971 150.577 106.99H150.564ZM143.362 88.4506C143.362 88.0606 143.504 87.684 143.763 87.3919C144.021 87.0998 144.378 86.9124 144.765 86.8652C145.152 86.8179 145.543 86.914 145.865 87.1353C146.186 87.3566 146.415 87.6879 146.508 88.0665H154.659C154.753 87.6868 154.982 87.3545 155.304 87.1323C155.625 86.9102 156.017 86.8135 156.406 86.8605C156.794 86.9076 157.151 87.0952 157.41 87.3879C157.67 87.6805 157.813 88.058 157.813 88.449C157.813 88.84 157.67 89.2175 157.41 89.5101C157.151 89.8028 156.794 89.9903 156.406 90.0374C156.017 90.0845 155.625 89.9878 155.304 89.7656C154.982 89.5434 154.753 89.2111 154.659 88.8315H146.508C146.415 89.2098 146.186 89.5409 145.865 89.7622C145.544 89.9835 145.154 90.0799 144.767 90.033C144.38 89.9862 144.023 89.7994 143.764 89.508C143.506 89.2165 143.362 88.8404 143.362 88.4506ZM150.564 96.6414C150.1 96.6425 149.645 96.5171 149.247 96.2787C148.85 96.0403 148.525 95.6979 148.307 95.2885C148.09 94.8791 147.988 94.4181 148.013 93.9551C148.038 93.4922 148.189 93.0448 148.449 92.6612C148.709 92.2776 149.07 91.9723 149.491 91.7781C149.912 91.584 150.378 91.5084 150.838 91.5594C151.299 91.6104 151.737 91.7862 152.106 92.0678C152.474 92.3493 152.759 92.726 152.929 93.1573H159.583C159.796 92.6012 160.197 92.1373 160.717 91.8461C161.236 91.5548 161.841 91.4547 162.427 91.5631C163.012 91.6714 163.541 91.9814 163.922 92.4392C164.303 92.897 164.512 93.4737 164.512 94.0693C164.512 94.6648 164.303 95.2415 163.922 95.6994C163.541 96.1572 163.012 96.4671 162.427 96.5755C161.841 96.6838 161.236 96.5837 160.717 96.2925C160.197 96.0013 159.796 95.5373 159.583 94.9812H152.959C152.777 95.4696 152.45 95.8905 152.022 96.1874C151.594 96.4842 151.085 96.6427 150.564 96.6414ZM166.097 101.295C165.74 101.295 165.393 101.175 165.113 100.955C164.832 100.734 164.634 100.426 164.55 100.079H157.762C157.669 100.459 157.44 100.791 157.119 101.014C156.797 101.236 156.405 101.333 156.017 101.286C155.628 101.24 155.271 101.052 155.011 100.759C154.752 100.467 154.608 100.089 154.608 99.6979C154.608 99.3068 154.752 98.9292 155.011 98.6365C155.271 98.3438 155.628 98.1563 156.017 98.1094C156.405 98.0625 156.797 98.1595 157.119 98.382C157.44 98.6045 157.669 98.9372 157.762 99.3171H164.56C164.632 99.0273 164.784 98.7635 164.999 98.5559C165.214 98.3483 165.482 98.2052 165.774 98.1429C166.066 98.0806 166.37 98.1017 166.651 98.2036C166.931 98.3056 167.178 98.4844 167.362 98.7196C167.546 98.9549 167.66 99.2371 167.691 99.5341C167.723 99.831 167.67 100.131 167.539 100.399C167.408 100.668 167.205 100.894 166.951 101.052C166.698 101.211 166.406 101.295 166.107 101.295H166.097ZM175.961 84.2885C175.608 84.2874 175.265 84.1695 174.986 83.9532C174.707 83.7369 174.507 83.4343 174.418 83.0926H140.75C140.656 83.4695 140.428 83.7992 140.108 84.0195C139.788 84.2398 139.399 84.3355 139.014 84.2884C138.628 84.2414 138.273 84.0549 138.016 83.7641C137.758 83.4734 137.616 83.0984 137.616 82.7101C137.616 82.3218 137.758 81.9468 138.016 81.6561C138.273 81.3653 138.628 81.1788 139.014 81.1318C139.399 81.0847 139.788 81.1804 140.108 81.4007C140.428 81.621 140.656 81.9507 140.75 82.3276H174.418C174.486 82.0353 174.636 81.7682 174.849 81.557C175.063 81.3457 175.331 81.199 175.624 81.1335C175.917 81.068 176.223 81.0864 176.506 81.1866C176.789 81.2869 177.038 81.4649 177.224 81.7002C177.411 81.9356 177.527 82.2187 177.56 82.5172C177.593 82.8156 177.541 83.1172 177.41 83.3875C177.279 83.6577 177.075 83.8856 176.82 84.045C176.566 84.2043 176.271 84.2887 175.971 84.2885H175.961ZM178.333 79.6118C177.818 79.611 177.315 79.4543 176.89 79.1621C176.465 78.8699 176.139 78.4561 175.955 77.975H133.487C133.333 77.9748 133.181 77.9351 133.046 77.8597C132.911 77.7843 132.797 77.6757 132.716 77.5441L99.592 44.4203L77.545 66.4672C77.4397 66.572 77.3105 66.6495 77.1685 66.6932C77.0265 66.7368 76.876 66.7453 76.73 66.7177H76.6364H66.5617V76.876C66.5905 77.0522 66.5709 77.2329 66.505 77.3988C66.4391 77.5647 66.3294 77.7096 66.1875 77.818L43.8066 100.199C43.6771 100.328 43.5119 100.415 43.3322 100.45C43.1854 100.546 43.0135 100.597 42.8378 100.597H13.0311C12.8495 101.164 12.4752 101.649 11.9731 101.969C11.4709 102.289 10.8726 102.423 10.282 102.348C9.69133 102.273 9.14564 101.993 8.73958 101.558C8.33352 101.122 8.09273 100.558 8.05898 99.9639C8.02523 99.3695 8.20065 98.782 8.55481 98.3034C8.90897 97.8248 9.41951 97.4852 9.99785 97.3437C10.5762 97.2022 11.1858 97.2676 11.7209 97.5286C12.2561 97.7896 12.683 98.2298 12.9275 98.7726H42.6407L64.7378 76.6789V65.7924C64.7378 65.5506 64.8339 65.3186 65.0049 65.1476C65.1759 64.9766 65.4079 64.8805 65.6497 64.8805H76.5329L98.9139 42.4995C99.0944 42.3287 99.3334 42.2336 99.582 42.2336C99.8305 42.2336 100.07 42.3287 100.25 42.4995L133.902 76.1311H175.968C176.135 75.6989 176.417 75.3206 176.784 75.0369C177.15 74.7532 177.587 74.575 178.047 74.5214C178.508 74.4678 178.974 74.5409 179.396 74.7328C179.818 74.9247 180.179 75.2281 180.441 75.6103C180.703 75.9926 180.856 76.4391 180.883 76.9017C180.91 77.3644 180.81 77.8256 180.594 78.2356C180.378 78.6457 180.054 78.989 179.658 79.2286C179.261 79.4682 178.806 79.5949 178.343 79.5951L178.333 79.6118ZM172.497 70.0882C172.802 69.9156 173.156 69.8483 173.503 69.8968C173.85 69.9453 174.171 70.1069 174.417 70.3566C174.663 70.6062 174.82 70.93 174.863 71.2778C174.907 71.6256 174.834 71.978 174.657 72.2804C174.48 72.5828 174.208 72.8183 173.883 72.9505C173.559 73.0827 173.199 73.1042 172.861 73.0117C172.523 72.9192 172.225 72.7177 172.013 72.4386C171.801 72.1595 171.687 71.8183 171.689 71.4678C171.691 71.1645 171.779 70.868 171.943 70.6127L168.462 67.1353C168.228 67.268 167.963 67.3382 167.694 67.3391C167.377 67.3391 167.067 67.2451 166.804 67.0692C166.541 66.8932 166.336 66.6431 166.215 66.3505C166.094 66.058 166.062 65.7361 166.125 65.4256C166.187 65.1151 166.339 64.83 166.563 64.6064C166.787 64.3827 167.073 64.2306 167.383 64.1692C167.694 64.1079 168.016 64.14 168.308 64.2617C168.601 64.3833 168.85 64.5889 169.026 64.8525C169.201 65.116 169.294 65.4257 169.294 65.7423C169.292 66.0545 169.201 66.3596 169.03 66.6209L172.497 70.0882ZM178.998 68.2877C178.404 68.2869 177.829 68.0783 177.372 67.6982C176.916 67.318 176.607 66.7902 176.498 66.2062C176.39 65.6221 176.49 65.0186 176.78 64.5002C177.069 63.9817 177.531 63.5809 178.086 63.3673V55.3001H158.561C158.32 55.8448 157.897 56.2881 157.363 56.5531C156.83 56.8181 156.221 56.888 155.642 56.7507C155.062 56.6135 154.549 56.2777 154.192 55.8017C153.834 55.3257 153.654 54.7394 153.684 54.1447C153.713 53.55 153.95 52.9844 154.353 52.546C154.755 52.1076 155.299 51.8241 155.889 51.7446C156.479 51.6652 157.079 51.7949 157.583 52.1112C158.088 52.4275 158.465 52.9105 158.651 53.4762H179.008C179.25 53.4762 179.481 53.5723 179.653 53.7433C179.824 53.9143 179.92 54.1463 179.92 54.3882V63.3506C180.474 63.5642 180.936 63.965 181.226 64.4835C181.516 65.0019 181.615 65.6054 181.507 66.1895C181.399 66.7735 181.09 67.3013 180.633 67.6815C180.177 68.0616 179.602 68.2702 179.008 68.271L178.998 68.2877ZM184.309 50.3596C183.885 50.3587 183.479 50.1897 183.18 49.8897C182.88 49.5898 182.712 49.1833 182.712 48.7595C182.714 48.3928 182.844 48.0381 183.08 47.7574L178.998 43.6754L173.513 49.1604C173.475 49.1964 173.43 49.2244 173.382 49.2428C173.333 49.2611 173.281 49.2695 173.229 49.2673H151.997C151.872 49.6359 151.617 49.9461 151.279 50.1395C150.942 50.333 150.545 50.3961 150.164 50.3171C149.783 50.2381 149.444 50.0225 149.211 49.7108C148.978 49.3991 148.867 49.0129 148.899 48.6252C148.932 48.2374 149.105 47.8748 149.386 47.6057C149.667 47.3367 150.037 47.1798 150.426 47.1647C150.814 47.1496 151.195 47.2773 151.496 47.5237C151.798 47.7701 151.998 48.1182 152.06 48.5023H173.105L178.727 42.8803C178.727 42.8803 178.727 42.8803 178.744 42.8569C178.779 42.8213 178.821 42.793 178.867 42.7737C178.913 42.7543 178.963 42.7444 179.013 42.7444C179.063 42.7444 179.112 42.7543 179.158 42.7737C179.205 42.793 179.246 42.8213 179.282 42.8569L183.704 47.283C183.899 47.2008 184.108 47.1588 184.319 47.1594C184.535 47.1496 184.751 47.1836 184.953 47.2595C185.156 47.3353 185.341 47.4515 185.497 47.6009C185.654 47.7503 185.778 47.9298 185.863 48.1287C185.948 48.3275 185.992 48.5416 185.992 48.7578C185.992 48.9741 185.948 49.1882 185.863 49.387C185.778 49.5859 185.654 49.7654 185.497 49.9148C185.341 50.0642 185.156 50.1804 184.953 50.2562C184.751 50.3321 184.535 50.3661 184.319 50.3562L184.309 50.3596ZM184.309 39.9073C183.8 39.9072 183.303 39.7543 182.882 39.4684C182.461 39.1826 182.135 38.7769 181.947 38.3039H127.916C127.674 38.3039 127.442 38.2078 127.271 38.0368C127.1 37.8658 127.004 37.6339 127.004 37.392V3.44975C127.003 3.32458 127.028 3.20059 127.077 3.08559C127.127 2.9706 127.199 2.86711 127.291 2.78166C127.311 2.75828 127.328 2.73156 127.351 2.70817L154.075 -24.0154C153.841 -24.566 153.808 -25.181 153.981 -25.7536C154.153 -26.3262 154.521 -26.8202 155.02 -27.1497C155.52 -27.4793 156.118 -27.6236 156.713 -27.5575C157.307 -27.4915 157.86 -27.2193 158.274 -26.7883C158.689 -26.3572 158.94 -25.7946 158.982 -25.198C159.025 -24.6015 158.858 -24.0087 158.509 -23.5228C158.161 -23.0368 157.653 -22.6883 157.074 -22.5379C156.495 -22.3874 155.882 -22.4445 155.341 -22.6992L128.834 3.80384V36.45H181.947C182.108 36.0137 182.386 35.6298 182.75 35.3402C183.114 35.0506 183.55 34.8662 184.012 34.8071C184.473 34.748 184.942 34.8164 185.367 35.005C185.792 35.1935 186.157 35.4949 186.423 35.8765C186.689 36.2581 186.846 36.7053 186.875 37.1695C186.905 37.6337 186.807 38.0971 186.592 38.5094C186.376 38.9218 186.052 39.2673 185.655 39.5085C185.257 39.7496 184.801 39.8772 184.336 39.8773L184.309 39.9073Z" fill="#051F64"/>
</g>
</svg>
